<?xml version="1.0" encoding="UTF-8" standalone="no"?>
<svg
   xmlns:dc="http://purl.org/dc/elements/1.1/"
   xmlns:cc="http://creativecommons.org/ns#"
   xmlns:rdf="http://www.w3.org/1999/02/22-rdf-syntax-ns#"
   xmlns:svg="http://www.w3.org/2000/svg"
   xmlns="http://www.w3.org/2000/svg"
   xmlns:sodipodi="http://sodipodi.sourceforge.net/DTD/sodipodi-0.dtd"
   xmlns:inkscape="http://www.inkscape.org/namespaces/inkscape"
   inkscape:version="1.0 (4035a4fb49, 2020-05-01)"
   sodipodi:docname="Gloves.svg"
   id="svg40"
   viewBox="0 0 33.867 33.867"
   version="1.1"
   height="128"
   width="128">
  <defs
     id="defs44" />
  <sodipodi:namedview
     inkscape:current-layer="svg40"
     inkscape:window-maximized="1"
     inkscape:window-y="33"
     inkscape:window-x="0"
     inkscape:cy="64"
     inkscape:cx="64"
     inkscape:zoom="2.5117188"
     showgrid="false"
     id="namedview42"
     inkscape:window-height="810"
     inkscape:window-width="1600"
     inkscape:pageshadow="2"
     inkscape:pageopacity="0"
     guidetolerance="10"
     gridtolerance="10"
     objecttolerance="10"
     borderopacity="1"
     bordercolor="#666666"
     pagecolor="#ffffff" />
  <metadata
     id="metadata2">
    <rdf:RDF>
      <cc:Work
         rdf:about="">
        <dc:format>image/svg+xml</dc:format>
        <dc:type
           rdf:resource="http://purl.org/dc/dcmitype/StillImage" />
        <dc:title></dc:title>
      </cc:Work>
    </rdf:RDF>
  </metadata>
  <g
     id="g38"
     transform="matrix(0.75071085,0,0,0.75071085,4.3729814,4.2175791)">
    <g
       id="g18"
       stroke-width="0.066924">
      <path
         id="path4"
         fill="#ffffff"
         d="m 6.763,14.673 c -0.2426,-0.0083 -0.50598,0.09903 -0.62794,0.31737 -0.078288,0.14642 -0.062404,0.34109 0.063526,0.45632 0.10293,0.10524 0.25494,0.13984 0.39736,0.1183 0.23786,-0.03059 0.4497,-0.20457 0.54676,-0.42128 0.075905,-0.1556 0.025194,-0.37982 -0.1515,-0.43932 -0.072599,-0.02741 -0.15142,-0.03129 -0.22822,-0.03137 z m -1.9829,5.3539 c -0.1654,0.0096 -0.29974,0.16305 -0.29972,0.32834 -0.0038,0.23304 -0.030976,0.47892 0.05699,0.70063 0.13975,0.30481 0.46461,0.46205 0.76896,0.55591 0.61198,0.17952 1.2536,0.21882 1.8867,0.25973 1.0002,0.05294 2.003,0.05949 3.0039,0.05607 0.10861,-0.007 0.13647,-0.12849 0.12287,-0.21829 -0.01204,-0.1941 -0.02502,-0.39264 -0.08248,-0.57918 C 10.164971,20.9573 9.95528,20.9336 9.79421,20.90281 9.13282,20.8003 8.46591,20.74214 7.81101,20.59407 6.95739,20.39049 6.07061,20.35983 5.22911,20.11371 5.09311,20.07545 4.95647,20.02756 4.81358,20.02692 c -0.011271,-6.83e-4 -0.022436,-6.69e-4 -0.033462,0 z m 0.39462,2.4193 c -0.24777,0.0081 -0.47819,0.17011 -0.59696,0.38311 -0.094985,0.19071 0.012167,0.45385 0.22613,0.50141 0.21872,0.05502 0.44717,-0.05794 0.59957,-0.21097 C 5.57259,22.95804 5.58824,22.62856 5.374311,22.4973 5.314721,22.46093 5.244081,22.44532 5.174721,22.44619 Z M 5.080344,24.76 c -0.081353,-0.0021 -0.15311,0.07744 -0.13751,0.15842 0.013315,0.07985 0.089183,0.12382 0.14692,0.17084 0.10646,0.08115 0.22239,0.14901 0.34443,0.20391 0.18958,0.0919 0.38651,0.16913 0.59055,0.22234 0.30985,0.08226 0.62885,0.13195 0.94925,0.1447 0.2359,0.002 0.47267,0.0022 0.70712,-0.02719 0.34029,-0.03785 0.67593,-0.11263 1.0015,-0.21816 0.059072,-0.017 0.12859,-0.04055 0.14954,-0.10522 0.032057,-0.07316 -0.015968,-0.15984 -0.087972,-0.1864 -0.12606,-0.04862 -0.26384,-0.05013 -0.39697,-0.05908 -0.22696,-0.0094 -0.45423,-0.01665 -0.68142,-0.01294 -0.11563,0.005 -0.22746,0.0093 -0.34469,0.01007 -0.2072,0.0018 -0.41787,0.0041 -0.62598,-0.0029 -0.30644,-0.02052 -0.61852,-0.0085 -0.91867,-0.08705 -0.20541,-0.05357 -0.40073,-0.13933 -0.60454,-0.19803 -0.029995,-0.0073 -0.060609,-0.01375 -0.091626,-0.01333 z" />
      <path
         id="path6"
         fill="#1a1a1a"
         d="M 6.0093,25.708 C 5.36394,25.52076 4.7825,25.17483 4.2048,24.6344 l -0.55647,-0.52055 0.034667,-1.0483 c 0.029783,-0.9006 0.065513,-1.119 0.25364,-1.5502 0.34716,-0.7958 0.36434,-1.3183 0.062934,-1.915 l -0.24895,-0.4928 -2.008e-4,-1.5986 c -2.008e-4,-1.5241 0.11195,-2.6416 0.41814,-4.1662 0.14209,-0.70746 1.0521,-2.8759 1.4419,-3.436 0.21253,-0.30531 0.54547,-0.46909 1.0402,-0.51172 0.22236,-0.01916 0.42945,-0.038628 0.4602,-0.043262 0.030751,-0.00463 0.25519,-0.17853 0.49875,-0.38643 0.51878,-0.44282 0.89899,-0.56498 1.6549,-0.53173 0.43519,0.019146 0.60317,-0.010194 0.7986698,-0.13952 0.77097,-0.50986 2.8058,0.017811 2.8058,0.7276 0,0.20779 0.03133,0.238 0.24685,0.238 0.86339,0 1.5468,0.41618 1.9681,1.1986 l 0.14694,0.27285 -0.64712,1.4184 c -0.35592,0.78013 -0.7956,1.7141 -0.97709,2.0754 -0.33218,0.66136 -0.36131,0.86178 -0.08987,0.61851 1.4988,-1.3434 2.5835,-1.4003 2.9566,-0.15496 0.26506,0.88467 -0.10326,1.3482 -3.266,4.11 -2.7759,2.424 -2.7747,2.4226 -2.522,2.9859 0.10776,0.2402 0.10026,0.42896 -0.06965,1.7522 -0.24112,1.8778 -0.26466,1.9296 -0.8251098,1.8176 -0.16394,-0.03279 -0.4708,0.0294 -0.90615,0.18363 -0.77839,0.27578 -2.2175,0.36092 -2.8751,0.17009 z m 1.8279,-0.22286 c 1.2929,-0.20979 1.1545,-0.31244 -0.40573,-0.30098 -1.3069,0.0096 -1.5175,-0.0086 -1.9632,-0.17 -0.42708,-0.15465 -0.47056,-0.15917 -0.30104,-0.0313 0.58916,0.4444 1.7179,0.65675 2.6699,0.50227 z m -2.5946,-2.3885 c 0.22351,-0.15655 0.21663,-0.47741 -0.011173,-0.52084 -0.21075,-0.04018 -0.56056,0.20844 -0.56056,0.39839 0,0.26335 0.28379,0.32413 0.57173,0.12244 z m 4.9258,-1.6301 C 10.110277,21.03321 10.220913,21.08628 9.0599,20.93477 8.50804,20.862753 7.9253,20.76512 7.7649,20.7178 7.60454,20.670487 7.05925,20.57625 6.5531,20.50838 6.04699,20.440512 5.4527,20.32524 5.2324,20.25221 4.67032,20.06587 4.58718,20.12027 4.58718,20.67439 c 0,0.8399 0.97669,1.0852 4.4656,1.1216 l 1.1613,0.01211 -0.04581,-0.34153 z m -3.251,-6.2124 c 0.31264,-0.33279 0.028767,-0.60261 -0.44337,-0.42144 -0.212,0.08135 -0.32721,0.35527 -0.20922,0.49743 0.14907,0.17962 0.4448,0.14518 0.65258,-0.076 z" />
      <path
         id="path8"
         fill="#4d4d4d"
         d="M 5.8886,25.774 C 5.24324,25.58676 4.6618,25.24083 4.0841,24.7004 L 3.52763,24.17985 3.5623,23.13155 c 0.02978,-0.9006 0.06551,-1.119 0.25364,-1.5502 0.34716,-0.7958 0.36434,-1.3183 0.06293,-1.915 l -0.24894,-0.4928 -2.01e-4,-1.5986 c -2.01e-4,-1.5241 0.11195,-2.6416 0.41814,-4.1662 0.14209,-0.70746 1.0521,-2.8759 1.4419,-3.436 0.21253,-0.30531 0.54547,-0.46909 1.0402,-0.51172 0.22236,-0.01916 0.42945,-0.03863 0.4602,-0.04326 0.03075,-0.0046 0.25519,-0.17853 0.49875,-0.38643 0.51878,-0.44282 0.89899,-0.56498 1.6549,-0.53173 0.43519,0.01915 0.60317,-0.01019 0.79867,-0.13952 0.77097,-0.50986 2.8058,0.01781 2.8058,0.7276 0,0.20779 0.03133,0.238 0.24685,0.238 0.86339,0 1.5468,0.41618 1.9681,1.1986 l 0.14694,0.27285 -0.64712,1.4184 c -0.35592,0.78013 -0.7956,1.7141 -0.97709,2.0754 -0.33218,0.66136 -0.36131,0.86178 -0.08987,0.61851 1.4988,-1.3434 2.5835,-1.4003 2.9566,-0.15496 0.26506,0.88467 -0.10326,1.3482 -3.266,4.11 -2.7759,2.424 -2.7747,2.4226 -2.522,2.9859 0.10776,0.2402 0.10026,0.42896 -0.06965,1.7522 -0.24112,1.8778 -0.26466,1.9296 -0.82511,1.8176 -0.16394,-0.03279 -0.4708,0.0294 -0.90615,0.18363 -0.7784,0.27578 -2.2175,0.36092 -2.8751,0.17009 z m 2.5426,-0.38973 c 0.74413,-0.22984 0.71187,-0.23766 -0.61861,-0.15006 -1.2374,0.08147 -1.968,0.0103 -2.6997,-0.26297 -0.32838,-0.12264 -0.39565,-0.13117 -0.27002,-0.03423 0.87383,0.67426 2.2843,0.85007 3.5883,0.44726 z M 5.2556,23.13517 C 5.47224,22.89579 5.39387,22.67375 5.082,22.64335 4.79138,22.61502 4.43628,22.95282 4.52196,23.17611 4.59038,23.35443 5.082,23.32699 5.25558,23.13517 Z m 4.8158,-1.5907 c 0,-0.41717 0.02874,-0.40338 -1.1449,-0.54945 C 8.38292,20.92737 7.8064,20.83189 7.6454,20.78285 7.48437,20.73381 6.95735,20.63939 6.4742,20.57304 5.99109,20.50668 5.363,20.3812 5.0784,20.29419 4.4804,20.11138 4.46652,20.12266 4.46652,20.79156 c 0,0.78796 1.0139,1.0438 4.2455,1.0711 l 1.3594,0.0115 v -0.32968 z m 0.77063,-1.2366 c 4.8916,-4.0674 5.7155,-5.0766 4.8341,-5.921 -0.29673,-0.28428 -0.3689,-0.24911 -0.24111,0.11749 0.29611,0.8494 -0.08898,1.2928 -4.1925,4.8267 -1.4193,1.2224 -1.2267,1.1427 -2.5936,1.0733 -1.8266,-0.09272 -1.6287,0.21477 0.29303,0.4552 1.1105,0.13893 1.0475,0.15723 1.9,-0.55164 z m -6.3806,-1.027 c 0.0037,-0.11503 0.09733,-0.56519 0.20814,-1.0004 0.20854,-0.81902 0.20044,-1.5871 -0.0274,-2.6011 -0.12703,-0.56535 -0.15028,-0.46087 -0.10802,0.48515 0.04425,0.99028 -0.10816,2.6101 -0.27937,2.9692 -0.06314,0.13244 -0.07684,0.24938 -0.03244,0.27682 0.04228,0.02613 0.07952,0.12999 0.08275,0.2308 0.0083,0.26005 0.14672,-0.05902 0.15634,-0.36047 z m 5.267,-1.9978 c 0.46714,-0.33106 0.254,-0.34281 -0.26365,-0.01454 -0.478,0.30314 -1.0665,0.89839 -1.0665,1.0787 0,0.08367 0.17999,-0.04162 0.48102,-0.33481 0.26456,-0.25767 0.64666,-0.58589 0.84914,-0.72934 z m 1.2629,-0.72064 c 0.29449,-0.31348 0.11999,-0.36776 -0.18899,-0.05878 -0.18332,0.18332 -0.22658,0.26759 -0.13738,0.26759 0.07161,0 0.21848,-0.09396 0.32637,-0.20881 z m 3.0335,-1.0263 c 1.0917,-0.85777 1.2984,-1.1921 0.26121,-0.42248 -0.9097,0.675 -1.5376,1.1864 -1.5376,1.2524 0,0.12775 0.33368,-0.08921 1.2764,-0.82993 z M 13.471,13.42503 c 1.3894,-2.9678 1.3046,-2.6318 0.79988,-3.1694 -0.3711,-0.39526 -0.83361,-0.65481 -0.48972,-0.2748 0.07615,0.08414 0.13845,0.19467 0.13845,0.24561 0,0.05095 0.15058,0.17726 0.33462,0.28069 0.30354,0.1706 0.48158,0.40256 0.23005,0.29972 -0.38623,-0.15791 -0.39736,-0.15836 -0.39736,-0.01628 0,0.07925 -0.13176,0.42543 -0.29279,0.76929 -0.3171,0.67714 -0.34903,0.85087 -0.18822,1.0241 0.08538,0.09201 0.07762,0.10321 -0.04227,0.06102 -0.24306,-0.08556 -1.5005,2.3065 -1.6291,3.0991 -0.16337,1.0067 0.32363,0.27169 1.5365,-2.3191 z m -6.7419,2.0474 c 0.37848,-0.19572 0.35968,-0.62526 -0.02737,-0.62526 -0.51556,0 -0.85783,0.4539 -0.49963,0.66254 0.19628,0.11432 0.2398,0.11124 0.527,-0.03727 z m -1.9292,-1.0226 c 0.83595,-1.1933 1.2517,-1.4128 1.9907,-1.0513 0.42317,0.20704 0.56451,0.22814 1.8213,0.27188 1.5344,0.0534 1.5969,0.07858 1.9661,0.79131 l 0.17796,0.34364 -0.0458,-0.32256 c -0.12537,-0.883 -0.63901,-1.168 -2.2221,-1.2327 -0.88922,-0.0364 -1.31,-0.0895 -1.554,-0.19611 -0.95916,-0.41909 -1.7078,-0.04531 -2.2523,1.1247 -0.34788,0.74734 -0.29708,0.86399 0.11816,0.27127 z m 0.84077,-2.9664 c 0.18697,-0.3537 0.19654,-0.4007 0.08154,-0.4007 -0.08143,0 -0.26151,0.36693 -0.37309,0.76019 -0.07079,0.24948 0.04527,0.10638 0.29155,-0.35949 z m 2.0526,-1.5136 C 8.15867,9.6491 8.33143,9.36078 7.88704,9.64643 7.73099,9.74674 7.46253,9.89448 7.29046,9.97475 c -0.17207,0.08028 -0.31324,0.17418 -0.31371,0.20869 -0.002,0.14632 0.34381,0.04323 0.71649,-0.21362 z m 4.5947,-0.68216 c 0,-0.35428 -0.21451,-0.54821 -0.78843,-0.71281 -0.33441,-0.09591 -0.32454,-0.06858 0.06934,0.19209 0.26278,0.1739 0.3379,0.28318 0.38457,0.55944 0.07983,0.4725 0.33455,0.44303 0.33455,-0.03871 z m -1.7617,-0.34082 c 0.16022,-0.12118 0.16015,-0.12282 -0.0049,-0.12282 -0.09202,0 -0.24038,0.05527 -0.3297,0.12282 -0.16022,0.12118 -0.16015,0.12282 0.0049,0.12282 0.09202,0 0.24038,-0.05527 0.3297,-0.12282 z" />
      <path
         id="path10"
         fill="#666666"
         d="M 5.8757,25.735 C 5.23034,25.54776 4.6489,25.20183 4.0712,24.6614 L 3.51473,24.14085 3.5494,23.09255 c 0.02978,-0.9006 0.06551,-1.119 0.25364,-1.5502 0.34716,-0.7958 0.36434,-1.3183 0.06293,-1.915 l -0.24894,-0.4928 -2.01e-4,-1.5986 c -2.02e-4,-1.5241 0.11195,-2.6416 0.41814,-4.1662 0.14209,-0.70746 1.0521,-2.8759 1.4419,-3.436 0.21253,-0.30531 0.54547,-0.46909 1.0402,-0.51172 0.22236,-0.01916 0.42945,-0.03863 0.4602,-0.04326 0.03075,-0.0046 0.25519,-0.17853 0.49875,-0.38643 0.51878,-0.44282 0.89899,-0.56498 1.6549,-0.53173 0.43519,0.01915 0.60317,-0.01019 0.79867,-0.13952 0.77097,-0.50986 2.8058,0.01781 2.8058,0.7276 0,0.20779 0.03133,0.238 0.24685,0.238 0.86339,0 1.5468,0.41618 1.9681,1.1986 l 0.14694,0.27285 -0.64712,1.4184 c -0.35592,0.78013 -0.7956,1.7141 -0.97709,2.0754 -0.33218,0.66136 -0.36131,0.86178 -0.08987,0.61851 1.4988,-1.3434 2.5835,-1.4003 2.9566,-0.15496 0.26506,0.88467 -0.10326,1.3482 -3.266,4.11 -2.7759,2.424 -2.7747,2.4226 -2.522,2.9859 0.10776,0.2402 0.10026,0.42896 -0.06965,1.7522 -0.24112,1.8778 -0.26466,1.9296 -0.82511,1.8176 -0.16394,-0.03279 -0.4708,0.0294 -0.90615,0.18363 -0.77839,0.27578 -2.2175,0.36092 -2.8751,0.17009 z m 2.5732,-0.39361 c 0.69668,-0.23184 0.67058,-0.2386 -0.60045,-0.15508 -1.2163,0.07993 -2.0611,0.0028 -2.7371,-0.24977 -0.55418,-0.20706 -0.34714,-0.01271 0.319,0.29944 0.86138,0.40365 2.0026,0.44349 3.0186,0.10539 z M 5.2426,23.09619 C 5.45924,22.85681 5.38086,22.63477 5.069,22.60437 4.77838,22.57604 4.42328,22.91384 4.50896,23.13713 4.57738,23.31545 5.069,23.28801 5.24258,23.09619 Z m 4.8158,-1.6375 c 0,-0.20705 -0.01054,-0.37645 -0.02341,-0.37645 -0.22133,0 -2.1055,-0.27264 -2.3189,-0.33555 -0.16103,-0.04746 -0.70685,-0.1439 -1.213,-0.21431 -0.50611,-0.07041 -1.1535,-0.1971 -1.4386,-0.28154 -0.61879,-0.18326 -0.61097,-0.1887 -0.61097,0.42514 0,0.87938 0.88019,1.1221 4.1619,1.1479 l 1.443,0.01131 v -0.37645 z m 1.3895,-1.694 c 4.7212,-4.0495 5.0674,-4.492 4.2235,-5.3966 -0.31065,-0.33304 -0.33684,-0.34432 -0.54286,-0.23407 l -0.21645,0.11584 0.18732,0.09282 c 0.28445,0.14096 0.28646,0.54666 0.0052,1.0634 -0.25844,0.47483 -4.2372,4.1095 -5.1615,4.7151 -0.36614,0.2399 -2.245,0.0692 -2.3123,-0.21008 -0.04783,-0.19844 -0.05336,-0.1947 -0.10812,0.0732 -0.1321,0.64631 -0.15054,0.63277 1.0927,0.80229 1.5223,0.20753 1.3097,0.28426 2.8324,-1.0219 z m -3.1565,-0.5492 c 0.27233,-0.98211 0.79754,-1.5411 2.0939,-2.2284 0.73724,-0.3909 1.0572,-0.74466 0.85576,-0.94617 -0.06319,-0.06319 -0.1816,0.01028 -0.40587,0.25182 -0.18517,0.19943 -0.54244,0.44288 -0.86038,0.5863 -1.1305,0.50991 -1.5909,1.0114 -1.8415,2.0062 -0.28832,1.1441 -0.14846,1.4361 0.15819,0.33022 z M 4.4959,19.07453 c 0.03363,-0.25305 0.13492,-0.70016 0.22511,-0.99356 0.19116,-0.62193 0.1529,-1.5615 -0.10433,-2.5618 l -0.15057,-0.58559 0.289,-0.44173 c 0.75096,-1.1478 1.2927,-1.4664 1.9383,-1.1398 0.43379,0.21948 0.54223,0.23577 1.8625,0.27986 1.222,0.04081 1.4245,0.06729 1.578,0.20648 0.27074,0.24541 0.57389,0.95869 0.63481,1.4937 0.08473,0.744 0.24231,0.5145 0.18103,-0.26361 -0.07785,-0.9884 -0.17639,-1.2389 -0.59068,-1.5016 -0.19735,-0.12516 -0.3495,-0.28356 -0.33928,-0.35323 0.01846,-0.12576 0.72251,-1.2698 1.0266,-1.668 0.08782,-0.11503 0.24506,-0.37854 0.34942,-0.58559 0.10436,-0.20705 0.35356,-0.62191 0.55378,-0.92195 0.67092,-1.0053 0.42619,-1.4868 -0.79486,-1.5637 L 10.6858,8.44488 11.7315,8.94197 v 0.4135 c 0,0.37429 -0.02777,0.43469 -0.29288,0.6369 -0.16109,0.12287 -0.3497,0.33326 -0.41914,0.46755 -0.14788,0.28597 -0.45111,0.48115 -0.53546,0.34466 -0.12519,-0.20257 -0.62444,-0.33494 -0.8753,-0.23209 -0.34498,0.14141 -0.1418,0.27911 0.53542,0.36286 0.54394,0.06726 0.95508,0.47228 0.59976,0.59086 -0.33433,0.11158 -0.80416,0.59427 -0.95434,0.9805 -0.23893,0.61443 -1.5127,0.7895 -2.7087,0.37237 -1.1917,-0.41566 -1.7898,-0.14061 -2.416,1.111 l -0.28498,0.56963 0.04957,1.3329 c 0.05301,1.4252 -0.0741,2.7662 -0.28188,2.974 -0.14369,0.14369 -0.14179,0.1742 0.03407,0.5476 0.17068,0.3624 0.2295,0.29886 0.31435,-0.33967 z m -0.39939,-2.1101 c -0.01767,-0.19676 -0.03238,-0.05659 -0.03268,0.3115 -3.35e-4,0.36808 0.01415,0.52907 0.03213,0.35774 0.01797,-0.17133 0.01822,-0.47248 5.35e-4,-0.66924 z m 0.23166,-1.3825 c -0.03098,-0.33358 -0.09076,-0.6065 -0.13284,-0.6065 -0.10246,0 -0.09648,0.23122 0.02805,1.0832 0.12301,0.84164 0.19628,0.50835 0.1048,-0.47667 z m 8.7597,0.73871 c 0.21185,-0.13435 0.52978,-0.37275 0.70652,-0.52978 0.17675,-0.15702 0.53782,-0.44356 0.80235,-0.63675 0.42221,-0.30831 0.62062,-0.59693 0.41033,-0.59693 -0.07418,0 -0.69594,0.40956 -1.5881,1.0461 -0.2912,0.20776 -0.56155,0.35791 -0.60078,0.33367 -0.09313,-0.05755 -0.33374,0.28798 -0.33374,0.47926 0,0.21067 0.16059,0.18523 0.60339,-0.09557 z M 12.3165,15.8134 c 0.56651,-1.1223 2.343,-4.9595 2.343,-5.0609 0,-0.21932 -0.75725,-0.95702 -1.0722,-1.0445 -0.39484,-0.10966 -1.0776,-0.11136 -1.1447,-0.0029 -0.032,0.05178 0.1184,0.08366 0.39469,0.08366 0.38,0 0.48762,0.03765 0.72352,0.25308 0.1524,0.1392 0.42175,0.32688 0.59856,0.41708 0.26289,0.13412 0.61211,0.43922 0.36538,0.31923 -0.73309,-0.35656 -0.86379,-0.37183 -0.70913,-0.0829 0.07298,0.13636 0.03949,0.25565 -0.17818,0.63462 -0.29265,0.50951 -0.34711,0.52242 -0.87001,0.20611 -0.29285,-0.17713 -0.73422,-0.21494 -0.68202,-0.05843 0.01821,0.05464 0.20016,0.15425 0.40434,0.22136 0.45824,0.15062 0.56169,0.22183 0.92175,0.63449 0.21489,0.24628 0.24057,0.30348 0.10328,0.23005 -0.27507,-0.14711 -0.29954,-0.13238 -0.5672,0.34155 -0.94765,1.6779 -1.4524,3.0903 -1.1765,3.2921 0.24233,0.1772 0.27317,0.1555 0.54536,-0.38372 z m -5.6,-0.37998 C 7.16477,15.20161 7.07416,14.7739 6.58838,14.82865 6.32441,14.8584 6.22963,14.84306 6.26814,14.77679 c 0.03008,-0.05177 -0.02299,-0.0261 -0.11793,0.05703 -0.41769,0.36575 0.05357,0.86473 0.56628,0.5996 z M 5.0724,12.98462 C 5.13899,12.85586 5.27491,12.50764 5.37446,12.21084 5.474,11.914 5.63231,11.54604 5.72625,11.39316 c 0.10537,-0.1715 0.14098,-0.30782 0.09296,-0.35585 -0.14403,-0.14403 -0.3367,0.1214 -0.60237,0.82993 -0.37492,0.99985 -0.472,1.7509 -0.14444,1.1174 z m 6.0313,-0.32596 c 0.32813,-0.42973 0.44242,-0.74647 0.31527,-0.87363 -0.08943,-0.08943 -0.43345,0.30649 -0.75925,0.87376 -0.39721,0.69166 -0.08422,0.69153 0.44396,-2.01e-4 z m -2.7668,-0.4164 c 0.08829,-0.21465 0.22661,-0.45635 0.30738,-0.53711 0.25105,-0.25105 0.35413,-0.50028 0.24999,-0.60443 -0.17384,-0.17384 -0.84338,0.96491 -0.84338,1.4345 0,0.21417 0.1338,0.07716 0.28601,-0.29289 z m -0.68276,0.07718 c 0.07212,-0.08052 0.22978,-0.37033 0.35033,-0.64403 0.12056,-0.2737 0.3138,-0.62167 0.42944,-0.77331 0.39631,-0.51959 0.6841,-1.3642 0.46479,-1.3642 -0.29493,0 -1.1025,0.98372 -0.91873,1.1191 0.17392,0.12813 0.10979,0.27741 -0.31732,0.73864 -0.3054,0.32977 -0.36468,0.44875 -0.36468,0.73202 0,0.37166 0.13159,0.44252 0.35618,0.1918 z M 6.7953,11.44635 c 0.44021,-0.4664 0.457,-0.56995 0.09241,-0.56995 -0.31036,0 -0.48488,0.21591 -0.52402,0.64833 C 6.32388,11.96445 6.30267,11.9683 6.7953,11.44635 Z M 6.04374,10.56228 c 0.27758,-0.415 0.28512,-0.43815 0.1427,-0.43815 -0.16115,0 -0.29994,0.17513 -0.39134,0.49382 -0.09929,0.3462 -0.0062,0.32536 0.24864,-0.05567 z m 6.2654,0.04662 c 0.27533,-0.28162 0.29573,-0.42514 0.06672,-0.46956 -0.08282,-0.01606 -0.20433,0.08344 -0.30646,0.25097 -0.31867,0.52269 -0.18063,0.64856 0.23974,0.21859 z m -4.9871,-0.34826 c 0.28447,-0.12094 1.0639,-0.77204 1.0639,-0.88869 0,-0.1702 -0.50711,0.08772 -1.4029,0.71355 -0.3494,0.24408 -0.1118,0.36682 0.33903,0.17514 z M 9.89174,9.6446 C 10.19442,9.32852 10.2395,9.24562 10.12179,9.22157 9.90682,9.17764 9.94311,9.02169 10.16362,9.04182 10.41263,9.06455 10.90802,8.87343 10.84872,8.7775 10.69146,8.52303 9.69612,8.97376 9.49642,9.38986 9.34885,9.69734 9.30239,9.88304 9.35265,9.96438 9.43216,10.09304 9.50198,10.05162 9.89174,9.64461 Z M 9.44342,8.95294 C 9.46538,8.95294 9.46008,8.9153 9.43164,8.86928 9.4032,8.82327 9.24099,8.786959 9.07117,8.788589 l -0.30877,0.003 0.20914,0.11982 c 0.11503,0.0659 0.25927,0.10221 0.32055,0.08069 0.06128,-0.02152 0.12938,-0.03912 0.15134,-0.03912 z" />
      <path
         id="path12"
         fill="#e1e119"
         d="M 6.0093,25.708 C 5.36394,25.52076 4.7825,25.17483 4.2048,24.6344 l -0.55647,-0.52055 0.034667,-1.0483 c 0.029783,-0.9006 0.065513,-1.119 0.25364,-1.5502 0.34716,-0.7958 0.36434,-1.3183 0.062934,-1.915 l -0.24895,-0.4928 -2.008e-4,-1.5986 c -2.008e-4,-1.5241 0.11195,-2.6416 0.41814,-4.1662 0.14209,-0.70746 1.0521,-2.8759 1.4419,-3.436 0.21253,-0.30531 0.54547,-0.46909 1.0402,-0.51172 0.22236,-0.01916 0.42945,-0.038628 0.4602,-0.043262 0.030751,-0.00463 0.25519,-0.17853 0.49875,-0.38643 0.51878,-0.44282 0.89899,-0.56498 1.6549,-0.53173 0.43519,0.019146 0.60317,-0.010194 0.7986698,-0.13952 0.77097,-0.50986 2.8058,0.017811 2.8058,0.7276 0,0.20779 0.03133,0.238 0.24685,0.238 0.86339,0 1.5468,0.41618 1.9681,1.1986 l 0.14694,0.27285 -0.64712,1.4184 c -0.35592,0.78013 -0.7956,1.7141 -0.97709,2.0754 -0.33218,0.66136 -0.36131,0.86178 -0.08987,0.61851 1.4988,-1.3434 2.5835,-1.4003 2.9566,-0.15496 0.26506,0.88467 -0.10326,1.3482 -3.266,4.11 -2.7759,2.424 -2.7747,2.4226 -2.522,2.9859 0.10776,0.2402 0.10026,0.42896 -0.06965,1.7522 -0.24112,1.8778 -0.26466,1.9296 -0.8251098,1.8176 -0.16394,-0.03279 -0.4708,0.0294 -0.90615,0.18363 -0.77839,0.27578 -2.2175,0.36092 -2.8751,0.17009 z m 2.1332,-0.25679 c 1.2316,-0.29178 1.1401,-0.33872 -0.6601,-0.33872 -1.6315,0 -1.6981,-0.0067 -2.2084,-0.22165 -0.61986,-0.26114 -0.54786,-0.09079 0.10258,0.24273 0.83468,0.42799 1.8216,0.54134 2.7659,0.31764 z m -2.7662,-2.382 C 5.59294,22.82983 5.51457,22.60779 5.2027,22.57739 4.91208,22.54906 4.55698,22.88686 4.64267,23.11015 4.711093,23.28847 5.20271,23.26103 5.37629,23.06921 Z M 5.13097,22.43582 c 0.18404,-0.06511 0.26626,-0.12004 0.18272,-0.12206 -0.26831,-0.0065 -0.89377,0.41421 -0.89377,0.60116 0,0.04056 0.084699,-0.02402 0.18822,-0.14349 0.10352,-0.11948 0.3388,-0.2705 0.52284,-0.33561 z m 5.0611,-1.0025 c 0,-0.4337 0.06904,-0.40267 -1.213,-0.54514 -0.4601,-0.05113 -1.0247,-0.14429 -1.2548,-0.20702 -0.23005,-0.06273 -0.77592,-0.159 -1.213,-0.21393 C 6.07417,20.4123 5.49137,20.29749 5.21607,20.2121 4.61266,20.02491 4.57104,20.05722 4.60357,20.68755 l 0.025452,0.49321 0.39483,0.19588 c 0.58537,0.29041 1.5801,0.41122 3.4742,0.42194 l 1.694,0.0096 v -0.37486 z m 0.32672,-0.77411 c 0.38797,-0.29516 2.5774,-2.1958 4.0158,-3.486 1.7145,-1.538 2.0008,-2.2011 1.2559,-2.9097 l -0.3411,-0.32448 -0.30722,0.18324 c -0.50378,0.30048 -1.4996,1.06 -2.2063,1.6827 -0.84726,0.74661 -0.85703,0.82678 0.16074,-1.3165 0.48067,-1.0122 1.0752,-2.2825 1.3212,-2.8228 L 14.8651,10.68329 14.49734,10.23183 C 14.07433,9.71253 13.8113,9.59467 13.07544,9.59467 h -0.52145 l -0.36536,0.55688 c -0.20095,0.30628 -0.49712,0.79352 -0.65815,1.0828 -0.40329,0.72439 -1.2878,2.1197 -1.3221,2.0854 -0.05011,-0.05011 0.32822,-0.74105 0.73523,-1.3427 0.21852,-0.32303 0.50179,-0.79359 0.62948,-1.0457 0.12769,-0.2521 0.39621,-0.69802 0.59671,-0.99095 0.6758,-0.98727 0.25265,-1.517 -1.2117,-1.517 H 10.41065 L 9.98634,8.86259 C 9.73023,9.12767 9.43376,9.5671 9.23846,9.97099 9.0605,10.33907 8.77357,10.8661 8.60084,11.14219 8.42811,11.41825 8.20339,11.90064 8.10147,12.21409 7.99954,12.5276 7.8983,12.76625 7.87649,12.74444 7.780527,12.648477 8.15625,11.62584 8.46016,11.15584 8.64353,10.87225 8.86346,10.4773 8.94889,10.27813 9.034319,10.07897 9.23808,9.68762 9.40169,9.40845 9.76166,8.79426 9.71542,8.71438 9.00928,8.73064 c -1.1414,0.026239 -2.0605,1.0539 -2.7554,3.0808 -0.17352,0.50611 -0.31707,0.84492 -0.31898,0.7529 -0.00622,-0.29865 0.63425,-2.0405 0.90006,-2.4479 L 7.09361,9.72005 6.84135,9.693622 c -0.6835,-0.071609 -1.138,0.51918 -1.9189,2.4943 -0.69936,1.7689 -1.1391,6.6271 -0.64905,7.1709 0.080516,0.0893 0.1464,0.23282 0.1464,0.31891 0,0.35564 0.14639,-0.0433 0.23459,-0.6393 0.051839,-0.3503 0.15686,-0.82082 0.23337,-1.0457 0.16481,-0.4843 0.12085,-1.549 -0.10369,-2.5112 -0.17739,-0.76012 0.31954,-1.6203 1.2784,-2.2129 l 0.28018,-0.17316 0.45862,0.22438 c 0.47229,0.23107 1.4348,0.36187 2.726,0.37046 0.88956,0.0059 1.2828,0.55681 1.3448,1.8842 l 0.03094,0.66155 -0.33917,0.0992 c -0.51412,0.15037 -0.96899,0.40493 -1.5343,0.85857 -0.92536,0.74266 -1.0087,0.92148 -1.478,3.1697 -0.045352,0.2173 0.02125,0.24113 1.1213,0.40108 1.2002,0.17451 1.5006,0.15741 1.8457,-0.10512 z m -3.6688,-5.2528 c 0.37848,-0.19572 0.35968,-0.62527 -0.027369,-0.62527 -0.51556,0 -0.85783,0.4539 -0.49963,0.66254 0.19628,0.11432 0.2398,0.11124 0.527,-0.03728 z M 6.6367,14.62755 c 0.092021,-0.05077 0.12582,-0.09345 0.075116,-0.09485 -0.14383,-0.004 -0.64344,0.35964 -0.68617,0.49939 -0.022167,0.07249 0.063428,0.03306 0.20269,-0.09337 0.13258,-0.12037 0.31635,-0.2604 0.40837,-0.31116 z" />
      <path
         id="path14"
         fill="#5b5a58"
         d="M 6.0093,25.708 C 5.36394,25.52076 4.7825,25.17483 4.2048,24.6344 l -0.55647,-0.52055 0.034667,-1.0483 c 0.029783,-0.9006 0.065513,-1.119 0.25364,-1.5502 0.34716,-0.7958 0.36434,-1.3183 0.062934,-1.915 l -0.24895,-0.4928 -2.008e-4,-1.5986 c -2.008e-4,-1.5241 0.11195,-2.6416 0.41814,-4.1662 0.14209,-0.70746 1.0521,-2.8759 1.4419,-3.436 0.21253,-0.30531 0.54547,-0.46909 1.0402,-0.51172 0.22236,-0.01916 0.42945,-0.038628 0.4602,-0.043262 0.030751,-0.00463 0.25519,-0.17853 0.49875,-0.38643 0.51878,-0.44282 0.89899,-0.56498 1.6549,-0.53173 0.43519,0.019146 0.60317,-0.010194 0.7986698,-0.13952 0.77097,-0.50986 2.8058,0.017811 2.8058,0.7276 0,0.20779 0.03133,0.238 0.24685,0.238 0.86339,0 1.5468,0.41618 1.9681,1.1986 l 0.14694,0.27285 -0.64712,1.4184 c -0.35592,0.78013 -0.7956,1.7141 -0.97709,2.0754 -0.33218,0.66136 -0.36131,0.86178 -0.08987,0.61851 1.4988,-1.3434 2.5835,-1.4003 2.9566,-0.15496 0.26506,0.88467 -0.10326,1.3482 -3.266,4.11 -2.7759,2.424 -2.7747,2.4226 -2.522,2.9859 0.10776,0.2402 0.10026,0.42896 -0.06965,1.7522 -0.24112,1.8778 -0.26466,1.9296 -0.8251098,1.8176 -0.16394,-0.03279 -0.4708,0.0294 -0.90615,0.18363 -0.77839,0.27578 -2.2175,0.36092 -2.8751,0.17009 z m 2.1332,-0.25679 c 1.2316,-0.29178 1.1401,-0.33872 -0.6601,-0.33872 -1.6315,0 -1.6981,-0.0067 -2.2084,-0.22165 -0.61986,-0.26114 -0.54786,-0.09079 0.10258,0.24273 0.83468,0.42799 1.8216,0.54134 2.7659,0.31764 z m -2.2466,-1.75 c 0.43979,-0.37829 0.26889,-0.97917 -0.36388,-1.2795 -0.65539,-0.311 -1.3211,0.41259 -0.98238,1.0677 0.23887,0.46192 0.92924,0.57049 1.3463,0.21174 z m 4.2962,-2.2679 c 0,-0.4337 0.06904,-0.40267 -1.213,-0.54514 C 8.519,20.837039 7.9544,20.74388 7.7243,20.68115 7.49425,20.618421 6.94838,20.52215 6.5113,20.46722 6.0742,20.412289 5.4914,20.29748 5.2161,20.21209 4.61269,20.0249 4.57107,20.05721 4.6036,20.68754 l 0.025452,0.49321 0.39483,0.19588 c 0.58537,0.29041 1.5801,0.41122 3.4742,0.42194 l 1.694,0.0096 v -0.37486 z m 0.32672,-0.77411 c 0.38797,-0.29516 2.5774,-2.1958 4.0158,-3.486 1.7145,-1.538 2.0008,-2.2011 1.2559,-2.9097 l -0.34111,-0.32448 -0.30722,0.18325 c -0.50378,0.30048 -1.4996,1.06 -2.2063,1.6827 -0.84726,0.74661 -0.85703,0.82678 0.16074,-1.3165 0.48067,-1.0122 1.0752,-2.2825 1.3212,-2.8228 l 0.4473,-0.98238 -0.36776,-0.45146 C 14.07436,9.71253 13.81133,9.59467 13.07547,9.59467 h -0.52145 l -0.36536,0.55688 c -0.20095,0.30628 -0.49712,0.79352 -0.65815,1.0828 -0.40329,0.72439 -1.2878,2.1197 -1.3221,2.0854 -0.05011,-0.05011 0.32822,-0.74105 0.73523,-1.3427 0.21852,-0.32303 0.50179,-0.79359 0.62948,-1.0457 0.12769,-0.2521 0.39621,-0.69802 0.59671,-0.99095 0.6758,-0.98727 0.25264,-1.517 -1.2117,-1.517 H 10.41068 L 9.98637,8.86259 C 9.73027,9.12767 9.43379,9.5671 9.23849,9.97099 9.06053,10.33907 8.7736,10.8661 8.60087,11.14219 8.42814,11.41825 8.20342,11.90064 8.1015,12.21409 7.99957,12.5276 7.89833,12.76625 7.87652,12.74444 7.780558,12.648477 8.15628,11.62584 8.46019,11.15584 8.64356,10.87225 8.86349,10.4773 8.94892,10.27813 9.034349,10.07897 9.23811,9.68762 9.40172,9.40845 9.76169,8.79426 9.71545,8.71438 9.00931,8.73064 c -1.1414,0.026239 -2.0605,1.0539 -2.7554,3.0808 -0.17352,0.50611 -0.31707,0.84492 -0.31898,0.7529 -0.00622,-0.29865 0.63425,-2.0405 0.90006,-2.4479 L 7.09364,9.72005 6.84138,9.693622 c -0.6835,-0.071609 -1.138,0.51918 -1.9189,2.4943 -0.69936,1.7689 -1.1391,6.6271 -0.64905,7.1709 0.080516,0.0893 0.1464,0.23282 0.1464,0.31891 0,0.35564 0.14639,-0.0433 0.23459,-0.6393 0.051839,-0.3503 0.15686,-0.82082 0.23337,-1.0457 0.16481,-0.4843 0.12085,-1.549 -0.10369,-2.5112 -0.17739,-0.76012 0.31954,-1.6203 1.2784,-2.2129 l 0.28018,-0.17316 0.45862,0.22438 c 0.47229,0.23107 1.4348,0.36187 2.726,0.37046 0.88956,0.0059 1.2828,0.55681 1.3448,1.8842 l 0.03094,0.66155 -0.33917,0.0992 c -0.51412,0.15037 -0.96899,0.40493 -1.5343,0.85857 -0.92536,0.74266 -1.0087,0.92148 -1.478,3.1697 -0.045352,0.2173 0.02125,0.24113 1.1213,0.40108 1.2002,0.17451 1.5006,0.15741 1.8457,-0.10512 z m -2.9967,-4.6888 c 0.53415,-0.47726 0.25143,-1.2161 -0.52037,-1.3599 -0.71468,-0.13316 -1.1932,0.37666 -0.94223,1.0039 0.24526,0.61296 0.97596,0.79084 1.4626,0.35602 z" />
      <path
         id="path16"
         fill="#050504"
         d="M 6.0093,25.708 C 5.36394,25.52076 4.7825,25.17483 4.2048,24.6344 l -0.55647,-0.52055 0.034667,-1.0483 c 0.029783,-0.9006 0.065513,-1.119 0.25364,-1.5502 0.34716,-0.7958 0.36434,-1.3183 0.062934,-1.915 l -0.24895,-0.4928 -2.008e-4,-1.5986 c -2.008e-4,-1.5241 0.11195,-2.6416 0.41814,-4.1662 0.14209,-0.70746 1.0521,-2.8759 1.4419,-3.436 0.21253,-0.30531 0.54547,-0.46909 1.0402,-0.51172 0.22236,-0.01916 0.42945,-0.038628 0.4602,-0.043262 0.030751,-0.00463 0.25519,-0.17853 0.49875,-0.38643 0.51878,-0.44282 0.89899,-0.56498 1.6549,-0.53173 0.43519,0.019146 0.60317,-0.010194 0.7986698,-0.13952 0.77097,-0.50986 2.8058,0.017811 2.8058,0.7276 0,0.20779 0.03133,0.238 0.24685,0.238 0.86339,0 1.5468,0.41618 1.9681,1.1986 l 0.14694,0.27285 -0.64712,1.4184 c -0.35592,0.78013 -0.7956,1.7141 -0.97709,2.0754 -0.33218,0.66136 -0.36131,0.86178 -0.08987,0.61851 1.4988,-1.3434 2.5835,-1.4003 2.9566,-0.15496 0.26506,0.88467 -0.10326,1.3482 -3.266,4.11 -2.7759,2.424 -2.7747,2.4226 -2.522,2.9859 0.10776,0.2402 0.10026,0.42896 -0.06965,1.7522 -0.24112,1.8778 -0.26466,1.9296 -0.8251098,1.8176 -0.16394,-0.03279 -0.4708,0.0294 -0.90615,0.18363 -0.77839,0.27578 -2.2175,0.36092 -2.8751,0.17009 z m 2.4381,-0.30233 c 0.91164,-0.28624 0.82999,-0.31367 -0.90314,-0.3034 -1.7319,0.01026 -1.7287,0.01074 -2.748,-0.41184 -0.32891,-0.13636 0.018978,0.1739 0.47058,0.41969 0.89859,0.48909 2.1837,0.60851 3.1805,0.29554 z m 1.1946,-1.8617 c 0.085449,-0.74768 0.17292,-1.4065 0.19437,-1.464 0.021457,-0.05751 -0.01431,-0.10457 -0.079479,-0.10457 -0.092195,0 -0.14142,0.27383 -0.2218,1.2339 -0.056816,0.67868 -0.12345,1.3374 -0.14807,1.464 -0.024621,0.12653 -0.012281,0.23005 0.027422,0.23005 0.039702,0 0.1421,-0.61173 0.22755,-1.3594 z M 6.8272,24.17332 C 6.65587,24.15534 6.35472,24.1551 6.15796,24.172731 c -0.19676,0.01767 -0.056587,0.03238 0.3115,0.03268 0.36808,3.35e-4 0.52907,-0.01416 0.35774,-0.03213 z M 5.5911,24.06684 C 5.42977,24.01517 5.41838,23.99795 5.541312,23.99152 c 0.087644,-0.0046 0.29953,-0.1557 0.47086,-0.33581 0.17133,-0.18011 0.40078,-0.34438 0.5099,-0.36506 0.19063,-0.03612 0.1898,-0.03803 -0.02122,-0.04898 -0.17113,-0.0089 -0.23023,-0.06456 -0.26777,-0.25228 -0.026497,-0.13248 -0.10918,-0.30189 -0.18374,-0.37645 -0.12499,-0.12499 -0.081233,-0.13675 0.56056,-0.15065 0.39984,-0.0087 0.5181,-0.02548 0.27786,-0.03952 -0.23005,-0.01344 -0.73242,-0.06975 -1.1164,-0.12513 -0.82712,-0.11928 -1.1627,-0.0014 -1.3961,0.49041 -0.29478,0.62121 0.32302,1.3572 1.1322,1.3488 0.26645,-0.0028 0.27397,-0.0091 0.083655,-0.07002 z m 4.6025,-2.6561 c 0.0013,-0.4335 0.02505,-0.49755 0.24039,-0.64833 0.33664,-0.23571 4.5618,-3.9335 5.0346,-4.4061 0.83274,-0.83254 0.93861,-1.5065 0.33201,-2.1131 l -0.33605,-0.33605 -0.27292,0.15636 c -0.53698,0.30764 -1.5388,1.0601 -2.1791,1.6367 -0.35823,0.32261 -0.66785,0.58656 -0.68805,0.58656 -0.04178,0 0.12368,-0.36321 1.5375,-3.375 1.1915,-2.5381 1.1174,-2.1738 0.56558,-2.7809 l -0.44932,-0.49442 -1.4216,-0.058384 -0.35779,0.51006 c -0.19678,0.28053 -0.37338,0.51006 -0.39243,0.51006 -0.04412,0 0.02042,-0.10395 0.41108,-0.66219 0.49147,-0.7023 0.45827,-1.0392 -0.12892,-1.308 -1.304,-0.59697 -2.0358,-0.28673 -2.7929,1.1839 -0.17225,0.33461 -0.32731,0.59426 -0.34456,0.57701 -0.017258,-0.01726 0.14998,-0.37078 0.37163,-0.78562 0.44575,-0.83421 0.44471,-0.84793 -0.068443,-0.90575 -0.82819,-0.093346 -1.9677,0.70973 -2.5188,1.7752 -0.119,0.23005 -0.21812,0.37842 -0.22026,0.3297 -0.00214,-0.04872 0.12787,-0.30738 0.2889,-0.57481 0.35782,-0.59421 0.36154,-0.54961 -0.045982,-0.54961 -0.69795,0 -1.1194,0.57615 -1.9275,2.6351 -0.58411,1.4882 -1.0451,6.5056 -0.64013,6.9668 0.06932,0.07899 0.15185,0.22832 0.1834,0.33184 0.099503,0.32652 0.19468,0.20602 0.26428,-0.33462 0.062753,-0.48747 0.071127,-0.50304 0.12372,-0.23005 0.039709,0.20609 0.047518,0.15655 0.026374,-0.16731 -0.019291,-0.29547 0.023074,-0.61281 0.1184,-0.88688 0.17147,-0.493 0.11963,-1.656 -0.11563,-2.594 l -0.13197,-0.5262 0.3337,-0.4914 c 0.59207,-0.87189 1.3261,-1.3981 1.602,-1.1485 0.28904,0.26158 0.93694,0.38868 2.2172,0.43497 1.6859,0.06095 1.9998,0.35673 2.0054,1.8895 l 0.0024,0.65526 -0.43608,0.14858 c -1.0682,0.36396 -2.1778,1.3636 -2.4332,2.1923 -0.31073,1.0079 -0.46493,1.928 -0.33828,2.0186 0.083903,0.06003 0.0744,0.06812 -0.037534,0.03195 -0.082468,-0.02664 -0.49656,-0.08927 -0.92024,-0.13918 -0.42368,-0.04991 -1.0191,-0.16343 -1.3231,-0.25225 -0.73443,-0.21456 -0.72532,-0.21703 -0.78991,0.21388 -0.16947,1.1301 0.6576,1.3742 4.9189,1.4517 l 0.73202,0.01332 0.0014,-0.48102 z m 0.50216,-9.014 c 0.10767,-0.18404 0.2966,-0.46638 0.41984,-0.62741 0.12324,-0.16103 0.28436,-0.40573 0.35804,-0.54376 0.07368,-0.13803 0.13547,-0.20866 0.13732,-0.15696 0.0018,0.0517 -0.20893,0.40933 -0.46839,0.79472 -0.52696,0.78274 -0.7448,1.0428 -0.4468,0.53341 z m -2.715,-0.12548 c 0.070766,-0.30692 0.50932,-1.1805 0.71395,-1.4221 0.17195,-0.20307 0.1718,-0.20064 -0.00535,0.08366 C 8.58901,11.09385 8.4213,11.41384 8.31665,11.64389 8.21201,11.87394 8.08278,12.15627 8.02947,12.2713 L 7.932557,12.48044 7.980776,12.2713 Z m -0.54653,3.8886 c 0.45139,-0.23342 0.61533,-0.78 0.36237,-1.2082 -0.34423,-0.58274 -1.1957,-0.69534 -1.6702,-0.22084 -0.79138,0.79138 0.27897,1.9611 1.3078,1.4291 z m 2.8773,-0.42271 c 0.27634,-0.27634 0.27452,-0.99423 -0.0033,-1.3012 -0.47846,-0.52869 -0.84084,0.57587 -0.40644,1.2388 0.14933,0.22791 0.23162,0.24042 0.40972,0.06233 z m -4.4533,-1.2872 C 6.21174,14.09644 6.26855,13.76251 5.98439,13.70836 5.6483,13.64428 5.09865,14.3229 5.22333,14.64791 c 0.083086,0.21651 0.28265,0.15429 0.6349,-0.19795 z" />
    </g>
    <g
       id="g36"
       transform="matrix(-1,0,0,1,33.463,-0.090747)">
      <g
         id="g34"
         stroke-width="0.066924">
        <path
           id="path20"
           fill="#ffffff"
           d="m 6.763,14.673 c -0.2426,-0.0083 -0.50598,0.09903 -0.62794,0.31737 -0.078288,0.14642 -0.062404,0.34109 0.063526,0.45632 0.10293,0.10524 0.25494,0.13984 0.39736,0.1183 0.23786,-0.03059 0.4497,-0.20457 0.54676,-0.42128 0.075905,-0.1556 0.025194,-0.37982 -0.1515,-0.43932 -0.072599,-0.02741 -0.15142,-0.03129 -0.22822,-0.03137 z m -1.9829,5.3539 c -0.1654,0.0096 -0.29974,0.16305 -0.29972,0.32834 -0.0038,0.23304 -0.030976,0.47892 0.05699,0.70063 0.13975,0.30481 0.46461,0.46205 0.76896,0.55591 0.61198,0.17952 1.2536,0.21882 1.8867,0.25973 1.0002,0.05294 2.003,0.05949 3.0039,0.05607 0.10861,-0.007 0.13647,-0.12849 0.12287,-0.21829 -0.01204,-0.1941 -0.02502,-0.39264 -0.08248,-0.57918 C 10.164971,20.9573 9.95528,20.9336 9.79421,20.90281 9.13282,20.8003 8.46591,20.74214 7.81101,20.59407 6.95739,20.39049 6.07061,20.35983 5.22911,20.11371 5.09311,20.07545 4.95647,20.02756 4.81358,20.02692 c -0.011271,-6.83e-4 -0.022436,-6.69e-4 -0.033462,0 z m 0.39462,2.4193 c -0.24777,0.0081 -0.47819,0.17011 -0.59696,0.38311 -0.094985,0.19071 0.012167,0.45385 0.22613,0.50141 0.21872,0.05502 0.44717,-0.05794 0.59957,-0.21097 C 5.57259,22.95804 5.58824,22.62856 5.374311,22.4973 5.314721,22.46093 5.244081,22.44532 5.174721,22.44619 Z M 5.080344,24.76 c -0.081353,-0.0021 -0.15311,0.07744 -0.13751,0.15842 0.013315,0.07985 0.089183,0.12382 0.14692,0.17084 0.10646,0.08115 0.22239,0.14901 0.34443,0.20391 0.18958,0.0919 0.38651,0.16913 0.59055,0.22234 0.30985,0.08226 0.62885,0.13195 0.94925,0.1447 0.2359,0.002 0.47267,0.0022 0.70712,-0.02719 0.34029,-0.03785 0.67593,-0.11263 1.0015,-0.21816 0.059072,-0.017 0.12859,-0.04055 0.14954,-0.10522 0.032057,-0.07316 -0.015968,-0.15984 -0.087972,-0.1864 -0.12606,-0.04862 -0.26384,-0.05013 -0.39697,-0.05908 -0.22696,-0.0094 -0.45423,-0.01665 -0.68142,-0.01294 -0.11563,0.005 -0.22746,0.0093 -0.34469,0.01007 -0.2072,0.0018 -0.41787,0.0041 -0.62598,-0.0029 -0.30644,-0.02052 -0.61852,-0.0085 -0.91867,-0.08705 -0.20541,-0.05357 -0.40073,-0.13933 -0.60454,-0.19803 -0.029995,-0.0073 -0.060609,-0.01375 -0.091626,-0.01333 z" />
        <path
           id="path22"
           fill="#1a1a1a"
           d="M 6.0093,25.708 C 5.36394,25.52076 4.7825,25.17483 4.2048,24.6344 l -0.55647,-0.52055 0.034667,-1.0483 c 0.029783,-0.9006 0.065513,-1.119 0.25364,-1.5502 0.34716,-0.7958 0.36434,-1.3183 0.062934,-1.915 l -0.24895,-0.4928 -2.008e-4,-1.5986 c -2.008e-4,-1.5241 0.11195,-2.6416 0.41814,-4.1662 0.14209,-0.70746 1.0521,-2.8759 1.4419,-3.436 0.21253,-0.30531 0.54547,-0.46909 1.0402,-0.51172 0.22236,-0.01916 0.42945,-0.038628 0.4602,-0.043262 0.030751,-0.00463 0.25519,-0.17853 0.49875,-0.38643 0.51878,-0.44282 0.89899,-0.56498 1.6549,-0.53173 0.43519,0.019146 0.60317,-0.010194 0.7986698,-0.13952 0.77097,-0.50986 2.8058,0.017811 2.8058,0.7276 0,0.20779 0.03133,0.238 0.24685,0.238 0.86339,0 1.5468,0.41618 1.9681,1.1986 l 0.14694,0.27285 -0.64712,1.4184 c -0.35592,0.78013 -0.7956,1.7141 -0.97709,2.0754 -0.33218,0.66136 -0.36131,0.86178 -0.08987,0.61851 1.4988,-1.3434 2.5835,-1.4003 2.9566,-0.15496 0.26506,0.88467 -0.10326,1.3482 -3.266,4.11 -2.7759,2.424 -2.7747,2.4226 -2.522,2.9859 0.10776,0.2402 0.10026,0.42896 -0.06965,1.7522 -0.24112,1.8778 -0.26466,1.9296 -0.8251098,1.8176 -0.16394,-0.03279 -0.4708,0.0294 -0.90615,0.18363 -0.77839,0.27578 -2.2175,0.36092 -2.8751,0.17009 z m 1.8279,-0.22286 c 1.2929,-0.20979 1.1545,-0.31244 -0.40573,-0.30098 -1.3069,0.0096 -1.5175,-0.0086 -1.9632,-0.17 -0.42708,-0.15465 -0.47056,-0.15917 -0.30104,-0.0313 0.58916,0.4444 1.7179,0.65675 2.6699,0.50227 z m -2.5946,-2.3885 c 0.22351,-0.15655 0.21663,-0.47741 -0.011173,-0.52084 -0.21075,-0.04018 -0.56056,0.20844 -0.56056,0.39839 0,0.26335 0.28379,0.32413 0.57173,0.12244 z m 4.9258,-1.6301 C 10.110277,21.03321 10.220913,21.08628 9.0599,20.93477 8.50804,20.862753 7.9253,20.76512 7.7649,20.7178 7.60454,20.670487 7.05925,20.57625 6.5531,20.50838 6.04699,20.440512 5.4527,20.32524 5.2324,20.25221 4.67032,20.06587 4.58718,20.12027 4.58718,20.67439 c 0,0.8399 0.97669,1.0852 4.4656,1.1216 l 1.1613,0.01211 -0.04581,-0.34153 z m -3.251,-6.2124 c 0.31264,-0.33279 0.028767,-0.60261 -0.44337,-0.42144 -0.212,0.08135 -0.32721,0.35527 -0.20922,0.49743 0.14907,0.17962 0.4448,0.14518 0.65258,-0.076 z" />
        <path
           id="path24"
           fill="#4d4d4d"
           d="M 5.8886,25.774 C 5.24324,25.58676 4.6618,25.24083 4.0841,24.7004 L 3.52763,24.17985 3.5623,23.13155 c 0.02978,-0.9006 0.06551,-1.119 0.25364,-1.5502 0.34716,-0.7958 0.36434,-1.3183 0.06293,-1.915 l -0.24894,-0.4928 -2.01e-4,-1.5986 c -2.01e-4,-1.5241 0.11195,-2.6416 0.41814,-4.1662 0.14209,-0.70746 1.0521,-2.8759 1.4419,-3.436 0.21253,-0.30531 0.54547,-0.46909 1.0402,-0.51172 0.22236,-0.01916 0.42945,-0.03863 0.4602,-0.04326 0.03075,-0.0046 0.25519,-0.17853 0.49875,-0.38643 0.51878,-0.44282 0.89899,-0.56498 1.6549,-0.53173 0.43519,0.01915 0.60317,-0.01019 0.79867,-0.13952 0.77097,-0.50986 2.8058,0.01781 2.8058,0.7276 0,0.20779 0.03133,0.238 0.24685,0.238 0.86339,0 1.5468,0.41618 1.9681,1.1986 l 0.14694,0.27285 -0.64712,1.4184 c -0.35592,0.78013 -0.7956,1.7141 -0.97709,2.0754 -0.33218,0.66136 -0.36131,0.86178 -0.08987,0.61851 1.4988,-1.3434 2.5835,-1.4003 2.9566,-0.15496 0.26506,0.88467 -0.10326,1.3482 -3.266,4.11 -2.7759,2.424 -2.7747,2.4226 -2.522,2.9859 0.10776,0.2402 0.10026,0.42896 -0.06965,1.7522 -0.24112,1.8778 -0.26466,1.9296 -0.82511,1.8176 -0.16394,-0.03279 -0.4708,0.0294 -0.90615,0.18363 -0.7784,0.27578 -2.2175,0.36092 -2.8751,0.17009 z m 2.5426,-0.38973 c 0.74413,-0.22984 0.71187,-0.23766 -0.61861,-0.15006 -1.2374,0.08147 -1.968,0.0103 -2.6997,-0.26297 -0.32838,-0.12264 -0.39565,-0.13117 -0.27002,-0.03423 0.87383,0.67426 2.2843,0.85007 3.5883,0.44726 z M 5.2556,23.13517 C 5.47224,22.89579 5.39387,22.67375 5.082,22.64335 4.79138,22.61502 4.43628,22.95282 4.52196,23.17611 4.59038,23.35443 5.082,23.32699 5.25558,23.13517 Z m 4.8158,-1.5907 c 0,-0.41717 0.02874,-0.40338 -1.1449,-0.54945 C 8.38292,20.92737 7.8064,20.83189 7.6454,20.78285 7.48437,20.73381 6.95735,20.63939 6.4742,20.57304 5.99109,20.50668 5.363,20.3812 5.0784,20.29419 4.4804,20.11138 4.46652,20.12266 4.46652,20.79156 c 0,0.78796 1.0139,1.0438 4.2455,1.0711 l 1.3594,0.0115 v -0.32968 z m 0.77063,-1.2366 c 4.8916,-4.0674 5.7155,-5.0766 4.8341,-5.921 -0.29673,-0.28428 -0.3689,-0.24911 -0.24111,0.11749 0.29611,0.8494 -0.08898,1.2928 -4.1925,4.8267 -1.4193,1.2224 -1.2267,1.1427 -2.5936,1.0733 -1.8266,-0.09272 -1.6287,0.21477 0.29303,0.4552 1.1105,0.13893 1.0475,0.15723 1.9,-0.55164 z m -6.3806,-1.027 c 0.0037,-0.11503 0.09733,-0.56519 0.20814,-1.0004 0.20854,-0.81902 0.20044,-1.5871 -0.0274,-2.6011 -0.12703,-0.56535 -0.15028,-0.46087 -0.10802,0.48515 0.04425,0.99028 -0.10816,2.6101 -0.27937,2.9692 -0.06314,0.13244 -0.07684,0.24938 -0.03244,0.27682 0.04228,0.02613 0.07952,0.12999 0.08275,0.2308 0.0083,0.26005 0.14672,-0.05902 0.15634,-0.36047 z m 5.267,-1.9978 c 0.46714,-0.33106 0.254,-0.34281 -0.26365,-0.01454 -0.478,0.30314 -1.0665,0.89839 -1.0665,1.0787 0,0.08367 0.17999,-0.04162 0.48102,-0.33481 0.26456,-0.25767 0.64666,-0.58589 0.84914,-0.72934 z m 1.2629,-0.72064 c 0.29449,-0.31348 0.11999,-0.36776 -0.18899,-0.05878 -0.18332,0.18332 -0.22658,0.26759 -0.13738,0.26759 0.07161,0 0.21848,-0.09396 0.32637,-0.20881 z m 3.0335,-1.0263 c 1.0917,-0.85777 1.2984,-1.1921 0.26121,-0.42248 -0.9097,0.675 -1.5376,1.1864 -1.5376,1.2524 0,0.12775 0.33368,-0.08921 1.2764,-0.82993 z M 13.471,13.42503 c 1.3894,-2.9678 1.3046,-2.6318 0.79988,-3.1694 -0.3711,-0.39526 -0.83361,-0.65481 -0.48972,-0.2748 0.07615,0.08414 0.13845,0.19467 0.13845,0.24561 0,0.05095 0.15058,0.17726 0.33462,0.28069 0.30354,0.1706 0.48158,0.40256 0.23005,0.29972 -0.38623,-0.15791 -0.39736,-0.15836 -0.39736,-0.01628 0,0.07925 -0.13176,0.42543 -0.29279,0.76929 -0.3171,0.67714 -0.34903,0.85087 -0.18822,1.0241 0.08538,0.09201 0.07762,0.10321 -0.04227,0.06102 -0.24306,-0.08556 -1.5005,2.3065 -1.6291,3.0991 -0.16337,1.0067 0.32363,0.27169 1.5365,-2.3191 z m -6.7419,2.0474 c 0.37848,-0.19572 0.35968,-0.62526 -0.02737,-0.62526 -0.51556,0 -0.85783,0.4539 -0.49963,0.66254 0.19628,0.11432 0.2398,0.11124 0.527,-0.03727 z m -1.9292,-1.0226 c 0.83595,-1.1933 1.2517,-1.4128 1.9907,-1.0513 0.42317,0.20704 0.56451,0.22814 1.8213,0.27188 1.5344,0.0534 1.5969,0.07858 1.9661,0.79131 l 0.17796,0.34364 -0.0458,-0.32256 c -0.12537,-0.883 -0.63901,-1.168 -2.2221,-1.2327 -0.88922,-0.0364 -1.31,-0.0895 -1.554,-0.19611 -0.95916,-0.41909 -1.7078,-0.04531 -2.2523,1.1247 -0.34788,0.74734 -0.29708,0.86399 0.11816,0.27127 z m 0.84077,-2.9664 c 0.18697,-0.3537 0.19654,-0.4007 0.08154,-0.4007 -0.08143,0 -0.26151,0.36693 -0.37309,0.76019 -0.07079,0.24948 0.04527,0.10638 0.29155,-0.35949 z m 2.0526,-1.5136 C 8.15867,9.6491 8.33143,9.36078 7.88704,9.64643 7.73099,9.74674 7.46253,9.89448 7.29046,9.97475 c -0.17207,0.08028 -0.31324,0.17418 -0.31371,0.20869 -0.002,0.14632 0.34381,0.04323 0.71649,-0.21362 z m 4.5947,-0.68216 c 0,-0.35428 -0.21451,-0.54821 -0.78843,-0.71281 -0.33441,-0.09591 -0.32454,-0.06858 0.06934,0.19209 0.26278,0.1739 0.3379,0.28318 0.38457,0.55944 0.07983,0.4725 0.33455,0.44303 0.33455,-0.03871 z m -1.7617,-0.34082 c 0.16022,-0.12118 0.16015,-0.12282 -0.0049,-0.12282 -0.09202,0 -0.24038,0.05527 -0.3297,0.12282 -0.16022,0.12118 -0.16015,0.12282 0.0049,0.12282 0.09202,0 0.24038,-0.05527 0.3297,-0.12282 z" />
        <path
           id="path26"
           fill="#666666"
           d="M 5.8757,25.735 C 5.23034,25.54776 4.6489,25.20183 4.0712,24.6614 L 3.51473,24.14085 3.5494,23.09255 c 0.02978,-0.9006 0.06551,-1.119 0.25364,-1.5502 0.34716,-0.7958 0.36434,-1.3183 0.06293,-1.915 l -0.24894,-0.4928 -2.01e-4,-1.5986 c -2.02e-4,-1.5241 0.11195,-2.6416 0.41814,-4.1662 0.14209,-0.70746 1.0521,-2.8759 1.4419,-3.436 0.21253,-0.30531 0.54547,-0.46909 1.0402,-0.51172 0.22236,-0.01916 0.42945,-0.03863 0.4602,-0.04326 0.03075,-0.0046 0.25519,-0.17853 0.49875,-0.38643 0.51878,-0.44282 0.89899,-0.56498 1.6549,-0.53173 0.43519,0.01915 0.60317,-0.01019 0.79867,-0.13952 0.77097,-0.50986 2.8058,0.01781 2.8058,0.7276 0,0.20779 0.03133,0.238 0.24685,0.238 0.86339,0 1.5468,0.41618 1.9681,1.1986 l 0.14694,0.27285 -0.64712,1.4184 c -0.35592,0.78013 -0.7956,1.7141 -0.97709,2.0754 -0.33218,0.66136 -0.36131,0.86178 -0.08987,0.61851 1.4988,-1.3434 2.5835,-1.4003 2.9566,-0.15496 0.26506,0.88467 -0.10326,1.3482 -3.266,4.11 -2.7759,2.424 -2.7747,2.4226 -2.522,2.9859 0.10776,0.2402 0.10026,0.42896 -0.06965,1.7522 -0.24112,1.8778 -0.26466,1.9296 -0.82511,1.8176 -0.16394,-0.03279 -0.4708,0.0294 -0.90615,0.18363 -0.77839,0.27578 -2.2175,0.36092 -2.8751,0.17009 z m 2.5732,-0.39361 c 0.69668,-0.23184 0.67058,-0.2386 -0.60045,-0.15508 -1.2163,0.07993 -2.0611,0.0028 -2.7371,-0.24977 -0.55418,-0.20706 -0.34714,-0.01271 0.319,0.29944 0.86138,0.40365 2.0026,0.44349 3.0186,0.10539 z M 5.2426,23.09619 C 5.45924,22.85681 5.38086,22.63477 5.069,22.60437 4.77838,22.57604 4.42328,22.91384 4.50896,23.13713 4.57738,23.31545 5.069,23.28801 5.24258,23.09619 Z m 4.8158,-1.6375 c 0,-0.20705 -0.01054,-0.37645 -0.02341,-0.37645 -0.22133,0 -2.1055,-0.27264 -2.3189,-0.33555 -0.16103,-0.04746 -0.70685,-0.1439 -1.213,-0.21431 -0.50611,-0.07041 -1.1535,-0.1971 -1.4386,-0.28154 -0.61879,-0.18326 -0.61097,-0.1887 -0.61097,0.42514 0,0.87938 0.88019,1.1221 4.1619,1.1479 l 1.443,0.01131 v -0.37645 z m 1.3895,-1.694 c 4.7212,-4.0495 5.0674,-4.492 4.2235,-5.3966 -0.31065,-0.33304 -0.33684,-0.34432 -0.54286,-0.23407 l -0.21645,0.11584 0.18732,0.09282 c 0.28445,0.14096 0.28646,0.54666 0.0052,1.0634 -0.25844,0.47483 -4.2372,4.1095 -5.1615,4.7151 -0.36614,0.2399 -2.245,0.0692 -2.3123,-0.21008 -0.04783,-0.19844 -0.05336,-0.1947 -0.10812,0.0732 -0.1321,0.64631 -0.15054,0.63277 1.0927,0.80229 1.5223,0.20753 1.3097,0.28426 2.8324,-1.0219 z m -3.1565,-0.5492 c 0.27233,-0.98211 0.79754,-1.5411 2.0939,-2.2284 0.73724,-0.3909 1.0572,-0.74466 0.85576,-0.94617 -0.06319,-0.06319 -0.1816,0.01028 -0.40587,0.25182 -0.18517,0.19943 -0.54244,0.44288 -0.86038,0.5863 -1.1305,0.50991 -1.5909,1.0114 -1.8415,2.0062 -0.28832,1.1441 -0.14846,1.4361 0.15819,0.33022 z M 4.4959,19.07453 c 0.03363,-0.25305 0.13492,-0.70016 0.22511,-0.99356 0.19116,-0.62193 0.1529,-1.5615 -0.10433,-2.5618 l -0.15057,-0.58559 0.289,-0.44173 c 0.75096,-1.1478 1.2927,-1.4664 1.9383,-1.1398 0.43379,0.21948 0.54223,0.23577 1.8625,0.27986 1.222,0.04081 1.4245,0.06729 1.578,0.20648 0.27074,0.24541 0.57389,0.95869 0.63481,1.4937 0.08473,0.744 0.24231,0.5145 0.18103,-0.26361 -0.07785,-0.9884 -0.17639,-1.2389 -0.59068,-1.5016 -0.19735,-0.12516 -0.3495,-0.28356 -0.33928,-0.35323 0.01846,-0.12576 0.72251,-1.2698 1.0266,-1.668 0.08782,-0.11503 0.24506,-0.37854 0.34942,-0.58559 0.10436,-0.20705 0.35356,-0.62191 0.55378,-0.92195 0.67092,-1.0053 0.42619,-1.4868 -0.79486,-1.5637 L 10.6858,8.44488 11.7315,8.94197 v 0.4135 c 0,0.37429 -0.02777,0.43469 -0.29288,0.6369 -0.16109,0.12287 -0.3497,0.33326 -0.41914,0.46755 -0.14788,0.28597 -0.45111,0.48115 -0.53546,0.34466 -0.12519,-0.20257 -0.62444,-0.33494 -0.8753,-0.23209 -0.34498,0.14141 -0.1418,0.27911 0.53542,0.36286 0.54394,0.06726 0.95508,0.47228 0.59976,0.59086 -0.33433,0.11158 -0.80416,0.59427 -0.95434,0.9805 -0.23893,0.61443 -1.5127,0.7895 -2.7087,0.37237 -1.1917,-0.41566 -1.7898,-0.14061 -2.416,1.111 l -0.28498,0.56963 0.04957,1.3329 c 0.05301,1.4252 -0.0741,2.7662 -0.28188,2.974 -0.14369,0.14369 -0.14179,0.1742 0.03407,0.5476 0.17068,0.3624 0.2295,0.29886 0.31435,-0.33967 z m -0.39939,-2.1101 c -0.01767,-0.19676 -0.03238,-0.05659 -0.03268,0.3115 -3.35e-4,0.36808 0.01415,0.52907 0.03213,0.35774 0.01797,-0.17133 0.01822,-0.47248 5.35e-4,-0.66924 z m 0.23166,-1.3825 c -0.03098,-0.33358 -0.09076,-0.6065 -0.13284,-0.6065 -0.10246,0 -0.09648,0.23122 0.02805,1.0832 0.12301,0.84164 0.19628,0.50835 0.1048,-0.47667 z m 8.7597,0.73871 c 0.21185,-0.13435 0.52978,-0.37275 0.70652,-0.52978 0.17675,-0.15702 0.53782,-0.44356 0.80235,-0.63675 0.42221,-0.30831 0.62062,-0.59693 0.41033,-0.59693 -0.07418,0 -0.69594,0.40956 -1.5881,1.0461 -0.2912,0.20776 -0.56155,0.35791 -0.60078,0.33367 -0.09313,-0.05755 -0.33374,0.28798 -0.33374,0.47926 0,0.21067 0.16059,0.18523 0.60339,-0.09557 z M 12.3165,15.8134 c 0.56651,-1.1223 2.343,-4.9595 2.343,-5.0609 0,-0.21932 -0.75725,-0.95702 -1.0722,-1.0445 -0.39484,-0.10966 -1.0776,-0.11136 -1.1447,-0.0029 -0.032,0.05178 0.1184,0.08366 0.39469,0.08366 0.38,0 0.48762,0.03765 0.72352,0.25308 0.1524,0.1392 0.42175,0.32688 0.59856,0.41708 0.26289,0.13412 0.61211,0.43922 0.36538,0.31923 -0.73309,-0.35656 -0.86379,-0.37183 -0.70913,-0.0829 0.07298,0.13636 0.03949,0.25565 -0.17818,0.63462 -0.29265,0.50951 -0.34711,0.52242 -0.87001,0.20611 -0.29285,-0.17713 -0.73422,-0.21494 -0.68202,-0.05843 0.01821,0.05464 0.20016,0.15425 0.40434,0.22136 0.45824,0.15062 0.56169,0.22183 0.92175,0.63449 0.21489,0.24628 0.24057,0.30348 0.10328,0.23005 -0.27507,-0.14711 -0.29954,-0.13238 -0.5672,0.34155 -0.94765,1.6779 -1.4524,3.0903 -1.1765,3.2921 0.24233,0.1772 0.27317,0.1555 0.54536,-0.38372 z m -5.6,-0.37998 C 7.16477,15.20161 7.07416,14.7739 6.58838,14.82865 6.32441,14.8584 6.22963,14.84306 6.26814,14.77679 c 0.03008,-0.05177 -0.02299,-0.0261 -0.11793,0.05703 -0.41769,0.36575 0.05357,0.86473 0.56628,0.5996 z M 5.0724,12.98462 C 5.13899,12.85586 5.27491,12.50764 5.37446,12.21084 5.474,11.914 5.63231,11.54604 5.72625,11.39316 c 0.10537,-0.1715 0.14098,-0.30782 0.09296,-0.35585 -0.14403,-0.14403 -0.3367,0.1214 -0.60237,0.82993 -0.37492,0.99985 -0.472,1.7509 -0.14444,1.1174 z m 6.0313,-0.32596 c 0.32813,-0.42973 0.44242,-0.74647 0.31527,-0.87363 -0.08943,-0.08943 -0.43345,0.30649 -0.75925,0.87376 -0.39721,0.69166 -0.08422,0.69153 0.44396,-2.01e-4 z m -2.7668,-0.4164 c 0.08829,-0.21465 0.22661,-0.45635 0.30738,-0.53711 0.25105,-0.25105 0.35413,-0.50028 0.24999,-0.60443 -0.17384,-0.17384 -0.84338,0.96491 -0.84338,1.4345 0,0.21417 0.1338,0.07716 0.28601,-0.29289 z m -0.68276,0.07718 c 0.07212,-0.08052 0.22978,-0.37033 0.35033,-0.64403 0.12056,-0.2737 0.3138,-0.62167 0.42944,-0.77331 0.39631,-0.51959 0.6841,-1.3642 0.46479,-1.3642 -0.29493,0 -1.1025,0.98372 -0.91873,1.1191 0.17392,0.12813 0.10979,0.27741 -0.31732,0.73864 -0.3054,0.32977 -0.36468,0.44875 -0.36468,0.73202 0,0.37166 0.13159,0.44252 0.35618,0.1918 z M 6.7953,11.44635 c 0.44021,-0.4664 0.457,-0.56995 0.09241,-0.56995 -0.31036,0 -0.48488,0.21591 -0.52402,0.64833 C 6.32388,11.96445 6.30267,11.9683 6.7953,11.44635 Z M 6.04374,10.56228 c 0.27758,-0.415 0.28512,-0.43815 0.1427,-0.43815 -0.16115,0 -0.29994,0.17513 -0.39134,0.49382 -0.09929,0.3462 -0.0062,0.32536 0.24864,-0.05567 z m 6.2654,0.04662 c 0.27533,-0.28162 0.29573,-0.42514 0.06672,-0.46956 -0.08282,-0.01606 -0.20433,0.08344 -0.30646,0.25097 -0.31867,0.52269 -0.18063,0.64856 0.23974,0.21859 z m -4.9871,-0.34826 c 0.28447,-0.12094 1.0639,-0.77204 1.0639,-0.88869 0,-0.1702 -0.50711,0.08772 -1.4029,0.71355 -0.3494,0.24408 -0.1118,0.36682 0.33903,0.17514 z M 9.89174,9.6446 C 10.19442,9.32852 10.2395,9.24562 10.12179,9.22157 9.90682,9.17764 9.94311,9.02169 10.16362,9.04182 10.41263,9.06455 10.90802,8.87343 10.84872,8.7775 10.69146,8.52303 9.69612,8.97376 9.49642,9.38986 9.34885,9.69734 9.30239,9.88304 9.35265,9.96438 9.43216,10.09304 9.50198,10.05162 9.89174,9.64461 Z M 9.44342,8.95294 C 9.46538,8.95294 9.46008,8.9153 9.43164,8.86928 9.4032,8.82327 9.24099,8.786959 9.07117,8.788589 l -0.30877,0.003 0.20914,0.11982 c 0.11503,0.0659 0.25927,0.10221 0.32055,0.08069 0.06128,-0.02152 0.12938,-0.03912 0.15134,-0.03912 z" />
        <path
           id="path28"
           fill="#e1e119"
           d="M 6.0093,25.708 C 5.36394,25.52076 4.7825,25.17483 4.2048,24.6344 l -0.55647,-0.52055 0.034667,-1.0483 c 0.029783,-0.9006 0.065513,-1.119 0.25364,-1.5502 0.34716,-0.7958 0.36434,-1.3183 0.062934,-1.915 l -0.24895,-0.4928 -2.008e-4,-1.5986 c -2.008e-4,-1.5241 0.11195,-2.6416 0.41814,-4.1662 0.14209,-0.70746 1.0521,-2.8759 1.4419,-3.436 0.21253,-0.30531 0.54547,-0.46909 1.0402,-0.51172 0.22236,-0.01916 0.42945,-0.038628 0.4602,-0.043262 0.030751,-0.00463 0.25519,-0.17853 0.49875,-0.38643 0.51878,-0.44282 0.89899,-0.56498 1.6549,-0.53173 0.43519,0.019146 0.60317,-0.010194 0.7986698,-0.13952 0.77097,-0.50986 2.8058,0.017811 2.8058,0.7276 0,0.20779 0.03133,0.238 0.24685,0.238 0.86339,0 1.5468,0.41618 1.9681,1.1986 l 0.14694,0.27285 -0.64712,1.4184 c -0.35592,0.78013 -0.7956,1.7141 -0.97709,2.0754 -0.33218,0.66136 -0.36131,0.86178 -0.08987,0.61851 1.4988,-1.3434 2.5835,-1.4003 2.9566,-0.15496 0.26506,0.88467 -0.10326,1.3482 -3.266,4.11 -2.7759,2.424 -2.7747,2.4226 -2.522,2.9859 0.10776,0.2402 0.10026,0.42896 -0.06965,1.7522 -0.24112,1.8778 -0.26466,1.9296 -0.8251098,1.8176 -0.16394,-0.03279 -0.4708,0.0294 -0.90615,0.18363 -0.77839,0.27578 -2.2175,0.36092 -2.8751,0.17009 z m 2.1332,-0.25679 c 1.2316,-0.29178 1.1401,-0.33872 -0.6601,-0.33872 -1.6315,0 -1.6981,-0.0067 -2.2084,-0.22165 -0.61986,-0.26114 -0.54786,-0.09079 0.10258,0.24273 0.83468,0.42799 1.8216,0.54134 2.7659,0.31764 z m -2.7662,-2.382 C 5.59294,22.82983 5.51457,22.60779 5.2027,22.57739 4.91208,22.54906 4.55698,22.88686 4.64267,23.11015 4.711093,23.28847 5.20271,23.26103 5.37629,23.06921 Z M 5.13097,22.43582 c 0.18404,-0.06511 0.26626,-0.12004 0.18272,-0.12206 -0.26831,-0.0065 -0.89377,0.41421 -0.89377,0.60116 0,0.04056 0.084699,-0.02402 0.18822,-0.14349 0.10352,-0.11948 0.3388,-0.2705 0.52284,-0.33561 z m 5.0611,-1.0025 c 0,-0.4337 0.06904,-0.40267 -1.213,-0.54514 -0.4601,-0.05113 -1.0247,-0.14429 -1.2548,-0.20702 -0.23005,-0.06273 -0.77592,-0.159 -1.213,-0.21393 C 6.07417,20.4123 5.49137,20.29749 5.21607,20.2121 4.61266,20.02491 4.57104,20.05722 4.60357,20.68755 l 0.025452,0.49321 0.39483,0.19588 c 0.58537,0.29041 1.5801,0.41122 3.4742,0.42194 l 1.694,0.0096 v -0.37486 z m 0.32672,-0.77411 c 0.38797,-0.29516 2.5774,-2.1958 4.0158,-3.486 1.7145,-1.538 2.0008,-2.2011 1.2559,-2.9097 l -0.3411,-0.32448 -0.30722,0.18324 c -0.50378,0.30048 -1.4996,1.06 -2.2063,1.6827 -0.84726,0.74661 -0.85703,0.82678 0.16074,-1.3165 0.48067,-1.0122 1.0752,-2.2825 1.3212,-2.8228 L 14.8651,10.68329 14.49734,10.23183 C 14.07433,9.71253 13.8113,9.59467 13.07544,9.59467 h -0.52145 l -0.36536,0.55688 c -0.20095,0.30628 -0.49712,0.79352 -0.65815,1.0828 -0.40329,0.72439 -1.2878,2.1197 -1.3221,2.0854 -0.05011,-0.05011 0.32822,-0.74105 0.73523,-1.3427 0.21852,-0.32303 0.50179,-0.79359 0.62948,-1.0457 0.12769,-0.2521 0.39621,-0.69802 0.59671,-0.99095 0.6758,-0.98727 0.25265,-1.517 -1.2117,-1.517 H 10.41065 L 9.98634,8.86259 C 9.73023,9.12767 9.43376,9.5671 9.23846,9.97099 9.0605,10.33907 8.77357,10.8661 8.60084,11.14219 8.42811,11.41825 8.20339,11.90064 8.10147,12.21409 7.99954,12.5276 7.8983,12.76625 7.87649,12.74444 7.780527,12.648477 8.15625,11.62584 8.46016,11.15584 8.64353,10.87225 8.86346,10.4773 8.94889,10.27813 9.034319,10.07897 9.23808,9.68762 9.40169,9.40845 9.76166,8.79426 9.71542,8.71438 9.00928,8.73064 c -1.1414,0.026239 -2.0605,1.0539 -2.7554,3.0808 -0.17352,0.50611 -0.31707,0.84492 -0.31898,0.7529 -0.00622,-0.29865 0.63425,-2.0405 0.90006,-2.4479 L 7.09361,9.72005 6.84135,9.693622 c -0.6835,-0.071609 -1.138,0.51918 -1.9189,2.4943 -0.69936,1.7689 -1.1391,6.6271 -0.64905,7.1709 0.080516,0.0893 0.1464,0.23282 0.1464,0.31891 0,0.35564 0.14639,-0.0433 0.23459,-0.6393 0.051839,-0.3503 0.15686,-0.82082 0.23337,-1.0457 0.16481,-0.4843 0.12085,-1.549 -0.10369,-2.5112 -0.17739,-0.76012 0.31954,-1.6203 1.2784,-2.2129 l 0.28018,-0.17316 0.45862,0.22438 c 0.47229,0.23107 1.4348,0.36187 2.726,0.37046 0.88956,0.0059 1.2828,0.55681 1.3448,1.8842 l 0.03094,0.66155 -0.33917,0.0992 c -0.51412,0.15037 -0.96899,0.40493 -1.5343,0.85857 -0.92536,0.74266 -1.0087,0.92148 -1.478,3.1697 -0.045352,0.2173 0.02125,0.24113 1.1213,0.40108 1.2002,0.17451 1.5006,0.15741 1.8457,-0.10512 z m -3.6688,-5.2528 c 0.37848,-0.19572 0.35968,-0.62527 -0.027369,-0.62527 -0.51556,0 -0.85783,0.4539 -0.49963,0.66254 0.19628,0.11432 0.2398,0.11124 0.527,-0.03728 z M 6.6367,14.62755 c 0.092021,-0.05077 0.12582,-0.09345 0.075116,-0.09485 -0.14383,-0.004 -0.64344,0.35964 -0.68617,0.49939 -0.022167,0.07249 0.063428,0.03306 0.20269,-0.09337 0.13258,-0.12037 0.31635,-0.2604 0.40837,-0.31116 z" />
        <path
           id="path30"
           fill="#5b5a58"
           d="M 6.0093,25.708 C 5.36394,25.52076 4.7825,25.17483 4.2048,24.6344 l -0.55647,-0.52055 0.034667,-1.0483 c 0.029783,-0.9006 0.065513,-1.119 0.25364,-1.5502 0.34716,-0.7958 0.36434,-1.3183 0.062934,-1.915 l -0.24895,-0.4928 -2.008e-4,-1.5986 c -2.008e-4,-1.5241 0.11195,-2.6416 0.41814,-4.1662 0.14209,-0.70746 1.0521,-2.8759 1.4419,-3.436 0.21253,-0.30531 0.54547,-0.46909 1.0402,-0.51172 0.22236,-0.01916 0.42945,-0.038628 0.4602,-0.043262 0.030751,-0.00463 0.25519,-0.17853 0.49875,-0.38643 0.51878,-0.44282 0.89899,-0.56498 1.6549,-0.53173 0.43519,0.019146 0.60317,-0.010194 0.7986698,-0.13952 0.77097,-0.50986 2.8058,0.017811 2.8058,0.7276 0,0.20779 0.03133,0.238 0.24685,0.238 0.86339,0 1.5468,0.41618 1.9681,1.1986 l 0.14694,0.27285 -0.64712,1.4184 c -0.35592,0.78013 -0.7956,1.7141 -0.97709,2.0754 -0.33218,0.66136 -0.36131,0.86178 -0.08987,0.61851 1.4988,-1.3434 2.5835,-1.4003 2.9566,-0.15496 0.26506,0.88467 -0.10326,1.3482 -3.266,4.11 -2.7759,2.424 -2.7747,2.4226 -2.522,2.9859 0.10776,0.2402 0.10026,0.42896 -0.06965,1.7522 -0.24112,1.8778 -0.26466,1.9296 -0.8251098,1.8176 -0.16394,-0.03279 -0.4708,0.0294 -0.90615,0.18363 -0.77839,0.27578 -2.2175,0.36092 -2.8751,0.17009 z m 2.1332,-0.25679 c 1.2316,-0.29178 1.1401,-0.33872 -0.6601,-0.33872 -1.6315,0 -1.6981,-0.0067 -2.2084,-0.22165 -0.61986,-0.26114 -0.54786,-0.09079 0.10258,0.24273 0.83468,0.42799 1.8216,0.54134 2.7659,0.31764 z m -2.2466,-1.75 c 0.43979,-0.37829 0.26889,-0.97917 -0.36388,-1.2795 -0.65539,-0.311 -1.3211,0.41259 -0.98238,1.0677 0.23887,0.46192 0.92924,0.57049 1.3463,0.21174 z m 4.2962,-2.2679 c 0,-0.4337 0.06904,-0.40267 -1.213,-0.54514 C 8.519,20.837039 7.9544,20.74388 7.7243,20.68115 7.49425,20.618421 6.94838,20.52215 6.5113,20.46722 6.0742,20.412289 5.4914,20.29748 5.2161,20.21209 4.61269,20.0249 4.57107,20.05721 4.6036,20.68754 l 0.025452,0.49321 0.39483,0.19588 c 0.58537,0.29041 1.5801,0.41122 3.4742,0.42194 l 1.694,0.0096 v -0.37486 z m 0.32672,-0.77411 c 0.38797,-0.29516 2.5774,-2.1958 4.0158,-3.486 1.7145,-1.538 2.0008,-2.2011 1.2559,-2.9097 l -0.34111,-0.32448 -0.30722,0.18325 c -0.50378,0.30048 -1.4996,1.06 -2.2063,1.6827 -0.84726,0.74661 -0.85703,0.82678 0.16074,-1.3165 0.48067,-1.0122 1.0752,-2.2825 1.3212,-2.8228 l 0.4473,-0.98238 -0.36776,-0.45146 C 14.07436,9.71253 13.81133,9.59467 13.07547,9.59467 h -0.52145 l -0.36536,0.55688 c -0.20095,0.30628 -0.49712,0.79352 -0.65815,1.0828 -0.40329,0.72439 -1.2878,2.1197 -1.3221,2.0854 -0.05011,-0.05011 0.32822,-0.74105 0.73523,-1.3427 0.21852,-0.32303 0.50179,-0.79359 0.62948,-1.0457 0.12769,-0.2521 0.39621,-0.69802 0.59671,-0.99095 0.6758,-0.98727 0.25264,-1.517 -1.2117,-1.517 H 10.41068 L 9.98637,8.86259 C 9.73027,9.12767 9.43379,9.5671 9.23849,9.97099 9.06053,10.33907 8.7736,10.8661 8.60087,11.14219 8.42814,11.41825 8.20342,11.90064 8.1015,12.21409 7.99957,12.5276 7.89833,12.76625 7.87652,12.74444 7.780558,12.648477 8.15628,11.62584 8.46019,11.15584 8.64356,10.87225 8.86349,10.4773 8.94892,10.27813 9.034349,10.07897 9.23811,9.68762 9.40172,9.40845 9.76169,8.79426 9.71545,8.71438 9.00931,8.73064 c -1.1414,0.026239 -2.0605,1.0539 -2.7554,3.0808 -0.17352,0.50611 -0.31707,0.84492 -0.31898,0.7529 -0.00622,-0.29865 0.63425,-2.0405 0.90006,-2.4479 L 7.09364,9.72005 6.84138,9.693622 c -0.6835,-0.071609 -1.138,0.51918 -1.9189,2.4943 -0.69936,1.7689 -1.1391,6.6271 -0.64905,7.1709 0.080516,0.0893 0.1464,0.23282 0.1464,0.31891 0,0.35564 0.14639,-0.0433 0.23459,-0.6393 0.051839,-0.3503 0.15686,-0.82082 0.23337,-1.0457 0.16481,-0.4843 0.12085,-1.549 -0.10369,-2.5112 -0.17739,-0.76012 0.31954,-1.6203 1.2784,-2.2129 l 0.28018,-0.17316 0.45862,0.22438 c 0.47229,0.23107 1.4348,0.36187 2.726,0.37046 0.88956,0.0059 1.2828,0.55681 1.3448,1.8842 l 0.03094,0.66155 -0.33917,0.0992 c -0.51412,0.15037 -0.96899,0.40493 -1.5343,0.85857 -0.92536,0.74266 -1.0087,0.92148 -1.478,3.1697 -0.045352,0.2173 0.02125,0.24113 1.1213,0.40108 1.2002,0.17451 1.5006,0.15741 1.8457,-0.10512 z m -2.9967,-4.6888 c 0.53415,-0.47726 0.25143,-1.2161 -0.52037,-1.3599 -0.71468,-0.13316 -1.1932,0.37666 -0.94223,1.0039 0.24526,0.61296 0.97596,0.79084 1.4626,0.35602 z" />
        <path
           id="path32"
           fill="#050504"
           d="M 6.0093,25.708 C 5.36394,25.52076 4.7825,25.17483 4.2048,24.6344 l -0.55647,-0.52055 0.034667,-1.0483 c 0.029783,-0.9006 0.065513,-1.119 0.25364,-1.5502 0.34716,-0.7958 0.36434,-1.3183 0.062934,-1.915 l -0.24895,-0.4928 -2.008e-4,-1.5986 c -2.008e-4,-1.5241 0.11195,-2.6416 0.41814,-4.1662 0.14209,-0.70746 1.0521,-2.8759 1.4419,-3.436 0.21253,-0.30531 0.54547,-0.46909 1.0402,-0.51172 0.22236,-0.01916 0.42945,-0.038628 0.4602,-0.043262 0.030751,-0.00463 0.25519,-0.17853 0.49875,-0.38643 0.51878,-0.44282 0.89899,-0.56498 1.6549,-0.53173 0.43519,0.019146 0.60317,-0.010194 0.7986698,-0.13952 0.77097,-0.50986 2.8058,0.017811 2.8058,0.7276 0,0.20779 0.03133,0.238 0.24685,0.238 0.86339,0 1.5468,0.41618 1.9681,1.1986 l 0.14694,0.27285 -0.64712,1.4184 c -0.35592,0.78013 -0.7956,1.7141 -0.97709,2.0754 -0.33218,0.66136 -0.36131,0.86178 -0.08987,0.61851 1.4988,-1.3434 2.5835,-1.4003 2.9566,-0.15496 0.26506,0.88467 -0.10326,1.3482 -3.266,4.11 -2.7759,2.424 -2.7747,2.4226 -2.522,2.9859 0.10776,0.2402 0.10026,0.42896 -0.06965,1.7522 -0.24112,1.8778 -0.26466,1.9296 -0.8251098,1.8176 -0.16394,-0.03279 -0.4708,0.0294 -0.90615,0.18363 -0.77839,0.27578 -2.2175,0.36092 -2.8751,0.17009 z m 2.4381,-0.30233 c 0.91164,-0.28624 0.82999,-0.31367 -0.90314,-0.3034 -1.7319,0.01026 -1.7287,0.01074 -2.748,-0.41184 -0.32891,-0.13636 0.018978,0.1739 0.47058,0.41969 0.89859,0.48909 2.1837,0.60851 3.1805,0.29554 z m 1.1946,-1.8617 c 0.085449,-0.74768 0.17292,-1.4065 0.19437,-1.464 0.021457,-0.05751 -0.01431,-0.10457 -0.079479,-0.10457 -0.092195,0 -0.14142,0.27383 -0.2218,1.2339 -0.056816,0.67868 -0.12345,1.3374 -0.14807,1.464 -0.024621,0.12653 -0.012281,0.23005 0.027422,0.23005 0.039702,0 0.1421,-0.61173 0.22755,-1.3594 z M 6.8272,24.17332 C 6.65587,24.15534 6.35472,24.1551 6.15796,24.172731 c -0.19676,0.01767 -0.056587,0.03238 0.3115,0.03268 0.36808,3.35e-4 0.52907,-0.01416 0.35774,-0.03213 z M 5.5911,24.06684 C 5.42977,24.01517 5.41838,23.99795 5.541312,23.99152 c 0.087644,-0.0046 0.29953,-0.1557 0.47086,-0.33581 0.17133,-0.18011 0.40078,-0.34438 0.5099,-0.36506 0.19063,-0.03612 0.1898,-0.03803 -0.02122,-0.04898 -0.17113,-0.0089 -0.23023,-0.06456 -0.26777,-0.25228 -0.026497,-0.13248 -0.10918,-0.30189 -0.18374,-0.37645 -0.12499,-0.12499 -0.081233,-0.13675 0.56056,-0.15065 0.39984,-0.0087 0.5181,-0.02548 0.27786,-0.03952 -0.23005,-0.01344 -0.73242,-0.06975 -1.1164,-0.12513 -0.82712,-0.11928 -1.1627,-0.0014 -1.3961,0.49041 -0.29478,0.62121 0.32302,1.3572 1.1322,1.3488 0.26645,-0.0028 0.27397,-0.0091 0.083655,-0.07002 z m 4.6025,-2.6561 c 0.0013,-0.4335 0.02505,-0.49755 0.24039,-0.64833 0.33664,-0.23571 4.5618,-3.9335 5.0346,-4.4061 0.83274,-0.83254 0.93861,-1.5065 0.33201,-2.1131 l -0.33605,-0.33605 -0.27292,0.15636 c -0.53698,0.30764 -1.5388,1.0601 -2.1791,1.6367 -0.35823,0.32261 -0.66785,0.58656 -0.68805,0.58656 -0.04178,0 0.12368,-0.36321 1.5375,-3.375 1.1915,-2.5381 1.1174,-2.1738 0.56558,-2.7809 l -0.44932,-0.49442 -1.4216,-0.058384 -0.35779,0.51006 c -0.19678,0.28053 -0.37338,0.51006 -0.39243,0.51006 -0.04412,0 0.02042,-0.10395 0.41108,-0.66219 0.49147,-0.7023 0.45827,-1.0392 -0.12892,-1.308 -1.304,-0.59697 -2.0358,-0.28673 -2.7929,1.1839 -0.17225,0.33461 -0.32731,0.59426 -0.34456,0.57701 -0.017258,-0.01726 0.14998,-0.37078 0.37163,-0.78562 0.44575,-0.83421 0.44471,-0.84793 -0.068443,-0.90575 -0.82819,-0.093346 -1.9677,0.70973 -2.5188,1.7752 -0.119,0.23005 -0.21812,0.37842 -0.22026,0.3297 -0.00214,-0.04872 0.12787,-0.30738 0.2889,-0.57481 0.35782,-0.59421 0.36154,-0.54961 -0.045982,-0.54961 -0.69795,0 -1.1194,0.57615 -1.9275,2.6351 -0.58411,1.4882 -1.0451,6.5056 -0.64013,6.9668 0.06932,0.07899 0.15185,0.22832 0.1834,0.33184 0.099503,0.32652 0.19468,0.20602 0.26428,-0.33462 0.062753,-0.48747 0.071127,-0.50304 0.12372,-0.23005 0.039709,0.20609 0.047518,0.15655 0.026374,-0.16731 -0.019291,-0.29547 0.023074,-0.61281 0.1184,-0.88688 0.17147,-0.493 0.11963,-1.656 -0.11563,-2.594 l -0.13197,-0.5262 0.3337,-0.4914 c 0.59207,-0.87189 1.3261,-1.3981 1.602,-1.1485 0.28904,0.26158 0.93694,0.38868 2.2172,0.43497 1.6859,0.06095 1.9998,0.35673 2.0054,1.8895 l 0.0024,0.65526 -0.43608,0.14858 c -1.0682,0.36396 -2.1778,1.3636 -2.4332,2.1923 -0.31073,1.0079 -0.46493,1.928 -0.33828,2.0186 0.083903,0.06003 0.0744,0.06812 -0.037534,0.03195 -0.082468,-0.02664 -0.49656,-0.08927 -0.92024,-0.13918 -0.42368,-0.04991 -1.0191,-0.16343 -1.3231,-0.25225 -0.73443,-0.21456 -0.72532,-0.21703 -0.78991,0.21388 -0.16947,1.1301 0.6576,1.3742 4.9189,1.4517 l 0.73202,0.01332 0.0014,-0.48102 z m 0.50216,-9.014 c 0.10767,-0.18404 0.2966,-0.46638 0.41984,-0.62741 0.12324,-0.16103 0.28436,-0.40573 0.35804,-0.54376 0.07368,-0.13803 0.13547,-0.20866 0.13732,-0.15696 0.0018,0.0517 -0.20893,0.40933 -0.46839,0.79472 -0.52696,0.78274 -0.7448,1.0428 -0.4468,0.53341 z m -2.715,-0.12548 c 0.070766,-0.30692 0.50932,-1.1805 0.71395,-1.4221 0.17195,-0.20307 0.1718,-0.20064 -0.00535,0.08366 C 8.58901,11.09385 8.4213,11.41384 8.31665,11.64389 8.21201,11.87394 8.08278,12.15627 8.02947,12.2713 L 7.932557,12.48044 7.980776,12.2713 Z m -0.54653,3.8886 c 0.45139,-0.23342 0.61533,-0.78 0.36237,-1.2082 -0.34423,-0.58274 -1.1957,-0.69534 -1.6702,-0.22084 -0.79138,0.79138 0.27897,1.9611 1.3078,1.4291 z m 2.8773,-0.42271 c 0.27634,-0.27634 0.27452,-0.99423 -0.0033,-1.3012 -0.47846,-0.52869 -0.84084,0.57587 -0.40644,1.2388 0.14933,0.22791 0.23162,0.24042 0.40972,0.06233 z m -4.4533,-1.2872 C 6.21174,14.09644 6.26855,13.76251 5.98439,13.70836 5.6483,13.64428 5.09865,14.3229 5.22333,14.64791 c 0.083086,0.21651 0.28265,0.15429 0.6349,-0.19795 z" />
      </g>
    </g>
  </g>
</svg>
